<svg xmlns="http://www.w3.org/2000/svg" viewBox="0 0 120 60" fill="currentColor">
  <!-- Voyage 500 catamaran profile silhouette — low-slung twin hull with mast -->
  <!-- Port hull -->
  <path d="M8,48 Q6,48 6,46 L10,38 L70,36 L78,38 Q80,40 78,42 L76,48 Q76,50 74,50 L10,50 Q8,50 8,48 Z" opacity="0.9"/>
  <!-- Starboard hull -->
  <path d="M8,54 Q6,54 6,52 L10,44 L70,42 L78,44 Q80,46 78,48 L76,54 Q76,56 74,56 L10,56 Q8,56 8,54 Z" opacity="0.9"/>
  <!-- Bridge deck / salon -->
  <path d="M18,38 L22,32 L68,32 L72,38 Z" opacity="0.85"/>
  <!-- Bimini / hardtop -->
  <path d="M30,32 L32,28 L64,28 L66,32 Z" opacity="0.7"/>
  <!-- Mast -->
  <path d="M38,28 L39,4 L40,4 L41,28 Z" opacity="0.9"/>
  <!-- Boom -->
  <path d="M40,22 L72,26 L72,27 L40,23 Z" opacity="0.7"/>
  <!-- Forestay -->
  <path d="M39,4 L14,36 L15,36.5 L39.5,5 Z" opacity="0.5"/>
  <!-- Backstay -->
  <path d="M40,4 L70,30 L69.5,30.5 L39.5,5 Z" opacity="0.4"/>
</svg>
