<?xml version="1.0" encoding="utf-8"?>
<!-- Generator: Adobe Illustrator 29.7.1, SVG Export Plug-In . SVG Version: 9.03 Build 0)  -->
<svg version="1.0" id="Layer_1" xmlns="http://www.w3.org/2000/svg" xmlns:xlink="http://www.w3.org/1999/xlink" x="0px" y="0px"
	 viewBox="0 0 600 600" style="enable-background:new 0 0 600 600;" xml:space="preserve">
<path d="M289.7,599.9c-2-0.1-4.3-0.3-5.7-0.6c-2.3-0.5-3.7-0.9-5.9-2l-1.4-0.7l0.1-0.9l-0.1,0.3c-0.1,0.3-0.1,0.3-0.5,0.3
	c-0.3,0-0.4,0-0.8,0.4c-0.7,0.7-1.7,1.2-3.1,1.7c-1.1,0.4-2.4,0.3-6.7-0.2c-4.8-0.6-7.8-1.6-11.2-3.7l-1-0.6l0-0.4
	c0-0.3,0-0.4-0.1-0.2c-0.1,0.2-0.2,0.2-0.5,0.2c-0.4,0-0.4,0-0.7,0.3c-0.7,0.6-2.4,1.4-3.8,1.5c-0.8,0.1-1.4,0-3.7-0.4
	c-4.7-0.9-7-1.5-9.6-2.8c-2-1-4.6-2.7-4.5-3c0-0.1,0-0.2,0.1-0.4l0-0.2l-0.1,0.2c-0.1,0.2-0.2,0.2-0.5,0.2c-0.4,0-0.4,0-0.7,0.2
	c-1,0.8-3.3,1.4-4.8,1.2c-1.1-0.1-5.7-1.4-7.5-2c-3.4-1.2-5.8-2.6-8.4-4.9c-0.6-0.5-0.6-0.5-0.4-1.1c0-0.1,0-0.1-0.2,0.1
	c-0.2,0.2-0.2,0.2-0.4,0.1c-0.2-0.1-0.6-0.1-1,0.2c-1.2,0.7-3.6,1-5.2,0.6c-0.9-0.2-4.1-1.4-5.7-2c-3.8-1.5-6.2-3.1-8.7-5.6l-1-1
	l0.2-0.4c0.2-0.5,0.2-0.6,0-0.2c-0.2,0.3-0.4,0.4-0.5,0.2c-0.1-0.1-0.5-0.1-0.9,0.1c-0.7,0.4-1.6,0.6-3.1,0.6c-1.6,0-1.6,0-4.4-1.2
	c-6-2.6-8.5-4.4-11.5-7.8l-1-1.1l0.3-0.6l-0.2,0.2c-0.2,0.2-0.2,0.2-0.4,0.1c-0.3-0.2-0.6-0.2-1,0c-0.5,0.2-1.3,0.4-2.5,0.4
	c-0.8,0-1.3,0-1.7-0.1c-1.1-0.3-5.5-2.6-7.7-4.1c-2.8-1.9-4.8-3.8-6.7-6.4l-0.5-0.7l0.2-0.3l0.2-0.3l-0.2,0.1
	c-0.2,0.1-0.5,0.1-0.5,0c0-0.2-0.5-0.2-0.9,0c-0.4,0.2-0.6,0.2-1.7,0.2c-2.1,0-2.7-0.2-4.9-1.6c-4.3-2.7-6.6-4.6-8.6-6.9
	c-0.8-0.9-1.4-1.7-2.2-3.1l-0.7-1.1l0.3-0.3c0.3-0.3,0.3-0.3,0-0.2c-0.3,0.2-0.4,0.2-0.6,0c-0.2-0.2-0.3-0.2-1.3,0
	c-0.6,0.1-2.2,0-3.1-0.3c-0.9-0.3-1.4-0.6-3-1.7c-5.5-4.1-8-6.7-10-10.7l-0.7-1.3l0.3-0.4l0.4-0.4l-0.3,0.3
	c-0.2,0.2-0.3,0.3-0.4,0.3c0,0-0.2-0.1-0.3-0.2c-0.2-0.2-0.4-0.2-1-0.1c-0.8,0.2-3-0.3-4.1-0.8c-0.7-0.4-1.2-0.8-2.7-2.1
	c-5-4.5-7-7.1-8.7-11.3l-0.4-0.9l0.8-0.8l-0.3,0.2c-0.4,0.2-0.5,0.3-0.6,0.1c-0.1-0.2-0.5-0.3-1.1-0.3c-1.1,0.1-3.2-0.5-4.2-1.3
	c-0.4-0.3-1.5-1.4-2.9-2.9c-2.6-2.8-4.2-4.8-5.3-6.9c-0.7-1.2-1.1-2.2-1.6-3.8l-0.5-1.4l0.4-0.4c0.3-0.3,0.4-0.3,0.1-0.2
	c-0.4,0.2-0.5,0.2-0.6,0c-0.1-0.2-0.4-0.3-1.2-0.4c-0.8,0-1.7-0.3-2.8-0.9c-0.7-0.4-0.9-0.5-1.5-1.1c-1.1-1.1-3.8-4.5-4.9-6.1
	c-0.8-1.2-1.3-2-1.8-3.1c-0.9-1.7-1.3-2.8-1.8-4.9l-0.3-1.3l0.3-0.3c0.2-0.2,0.2-0.2,0.1-0.2c-0.3,0.1-0.4,0.1-0.5-0.1
	c-0.1-0.3-0.3-0.3-0.9-0.4c-1-0.1-2.6-0.8-3.6-1.5c-0.7-0.5-1.1-1.1-2.5-3c-3.7-5.3-5-8.2-5.7-12.3c-0.1-0.7-0.2-1.3-0.2-1.4
	c0-0.2,0-0.2,0.3-0.4c0.4-0.2,0.5-0.4,0.2-0.2c-0.3,0.2-0.6,0.1-0.6-0.1c-0.1-0.2-0.5-0.5-0.8-0.5c-0.5,0-1.6-0.5-2.7-1.2
	c-1.2-0.8-1.5-1.2-2.9-3.5c-2-3.5-3.1-5.6-3.9-7.9c-0.3-0.8-0.7-2.4-0.8-3.2c-0.1-0.8-0.3-2.7-0.3-3.2c0-0.4,0-0.4,0.3-0.6l0.3-0.2
	l-0.3,0c-0.3,0-0.3,0-0.4-0.2c-0.1-0.3-0.3-0.5-0.8-0.6c-0.5-0.1-1.7-0.7-2.3-1.2c-1.3-1-1.8-1.6-3.1-4.5c-2.7-5.7-3.6-8.9-3.6-13.1
	v-1.4l0.7-0.3l-0.3,0c-0.3,0-0.3,0-0.4-0.2c-0.1-0.3-0.3-0.4-0.8-0.6c-0.6-0.2-1.2-0.6-2.1-1.3c-1.4-1.2-1.7-1.8-3.4-6.3
	c-1.7-4.7-2.2-8-1.9-11.9L17,392l0.4-0.1c0.3-0.1,0.3-0.1,0.2-0.1c-0.4,0-0.5,0-0.5-0.2c-0.1-0.3-0.2-0.4-0.9-0.8
	c-1.2-0.6-2.6-2-3.2-3.1c-0.9-1.8-2.4-7.7-2.7-10.4c-0.2-1.3-0.1-4.3,0-5.5c0.3-2.3,0.3-2.2,0.6-2.3c0.2,0,0.3-0.1,0.4-0.1
	c0.1,0,0,0-0.2-0.1c-0.3,0-0.3-0.1-0.4-0.3c-0.1-0.4-0.1-0.4-0.6-0.7c-1.1-0.5-2.4-2-3-3.2c-0.4-0.9-0.8-2.5-1.4-5.7
	c-0.7-3.7-0.8-6.6-0.4-9.4c0.2-1.3,0.7-3.4,0.8-3.5c0.1-0.1,0.3-0.1,0.4-0.1c0.3,0,0.3,0-0.1-0.1c-0.2,0-0.2-0.1-0.2-0.3
	c0-0.3-0.1-0.5-0.6-0.8c-0.9-0.5-2.4-2.4-2.8-3.6c-0.2-0.8-0.4-1.5-0.7-4c-0.4-2.9-0.4-4.1-0.4-6.4c0.1-2.8,0.3-4.3,1.2-7l0.3-1
	l0.3,0c0.7-0.1,0.7-0.1,0.4-0.1c-0.4,0-0.6-0.2-0.5-0.4c0.1-0.2-0.2-0.6-0.6-0.8c-0.8-0.5-2.1-2.5-2.4-3.6
	c-0.4-1.6-0.6-8.1-0.3-10.6c0.3-2.7,0.8-4.4,1.8-6.9l0.4-0.9l0.5,0c0.2,0,0.4,0,0.3,0c-0.1,0-0.2-0.1-0.3-0.1
	c-0.2,0-0.2-0.1-0.2-0.4c0-0.3,0-0.4-0.5-0.8c-0.6-0.6-1.1-1.4-1.6-2.3c-0.6-1.4-0.7-2.1-0.6-5.9c0.2-5.9,0.8-8.7,2.7-12.5l0.7-1.3
	l0.8,0.1L4,276.6c-0.3-0.1-0.3-0.1-0.3-0.4c0-0.3,0-0.4-0.5-0.9c-0.8-0.9-1.6-2.6-1.8-3.9c-0.1-0.8-0.1-1.2,0.3-4.2
	c0.6-5.5,1.5-8.5,3.3-11.8c1.1-1.9,1-1.8,1.4-1.8c0.3,0,0.3,0,0.1-0.1c-0.2-0.1-0.2-0.2-0.1-0.4c0.1-0.3,0-0.5-0.4-1
	c-0.5-0.6-1.2-2.3-1.4-3.6c-0.1-0.8,0-1.5,0.4-3.9c0.8-4.5,1.5-6.8,2.7-9.3c0.7-1.4,1.1-2.1,2.1-3.6c0.6-0.8,0.9-1.1,0.9-1.1
	c0.1,0,0.2,0.1,0.4,0.1l0.2,0.1l-0.2-0.1c-0.2-0.1-0.2-0.2-0.2-0.6c0-0.4,0-0.4-0.2-0.7c-0.5-0.6-1.1-2.2-1.2-3.6
	c-0.1-1,0.1-2.3,1.2-6.1c1.3-4.6,2.8-7.5,5.2-10.4c1-1.1,1-1.2,1.5-1l0.2,0.1l-0.2-0.2c-0.2-0.2-0.2-0.2-0.1-0.4
	c0.1-0.3,0.1-0.5-0.2-0.9c-0.7-1.1-1.1-3.5-0.8-4.8c0.3-1.4,1.9-5.6,2.8-7.7c0.9-2,2.2-4,3.4-5.4c0.7-0.8,2.5-2.6,2.6-2.6
	c0,0,0.2,0.1,0.4,0.1l0.3,0.1l-0.2-0.2c-0.2-0.2-0.3-0.4-0.1-0.5c0.1-0.1,0.1-0.5-0.1-0.9c-0.4-0.8-0.6-1.6-0.6-3.1
	c0-1.6,0-1.6,1.3-4.5c2.7-6.1,4.5-8.7,8.1-11.7l0.7-0.6l0.6,0.3l-0.2-0.2c-0.2-0.2-0.2-0.2-0.1-0.4c0.2-0.2,0.2-0.7,0-0.9
	c-0.2-0.3-0.4-1.3-0.4-2.5c0-1.7,0.1-2.2,1.6-4.9c3.1-5.7,5.2-8.3,8.8-11l1-0.7l0.6,0.4l-0.1-0.2c-0.1-0.2-0.1-0.2,0-0.4
	c0.2-0.3,0.2-0.5,0-1.1c-0.2-0.5-0.2-0.7-0.2-1.7c0-2.1,0.2-2.7,1.7-5c3.7-5.9,6.1-8.4,10.1-10.8c0.5-0.3,0.9-0.5,0.9-0.5
	c0.1,0,0.2,0.1,0.4,0.2l0.3,0.2l-0.2-0.2c-0.2-0.3-0.2-0.4,0-0.6c0.1-0.1,0.2-0.2,0.1-0.6c-0.1-1.1-0.2-1.4-0.1-2.2
	c0.2-2,0.5-2.8,2.8-5.7c3.8-4.9,6.3-7.1,10.1-9.1l1.1-0.5l0.3,0.3c0.3,0.3,0.4,0.3,0.1-0.1c-0.1-0.2-0.1-0.2,0-0.4
	c0.2-0.3,0.3-0.5,0.2-1c-0.1-0.6,0-1.5,0.2-2.5c0.5-1.8,0.9-2.3,4.3-6c2.2-2.4,4.1-4,6.3-5.3c0.9-0.6,1.6-0.9,3.2-1.6l1.3-0.5
	l0.2,0.2l0.2,0.2l-0.1-0.2c-0.1-0.2-0.1-0.2,0.1-0.4c0.2-0.2,0.2-0.2,0.2-1.1c0-1.1,0.5-2.9,1.2-4c0.6-0.9,3.9-4.1,6-5.8
	c2.6-2.1,4.9-3.3,7.8-4.3l1.3-0.4l0.4,0.4c0.2,0.2,0.3,0.3,0.2,0.1c-0.2-0.3-0.2-0.6,0-0.7c0.2-0.1,0.3-0.4,0.4-1.2
	c0-0.8,0.3-1.7,0.9-2.8c0.3-0.7,0.5-0.9,1.1-1.5c0.7-0.7,2.3-2,4.2-3.5c2.6-2,5.5-3.6,7.9-4.4c0.4-0.1,1.3-0.4,2.1-0.6l1.3-0.3
	l0.3,0.3c0.1,0.2,0.2,0.2,0.2,0.1c-0.1-0.3-0.1-0.4,0.1-0.5c0.3-0.1,0.4-0.3,0.4-0.7c0-1.1,1-3.2,2-4.2c0.6-0.6,1.8-1.5,4.6-3.3
	c3.8-2.5,7-3.8,10.6-4.4c0.6-0.1,1.2-0.2,1.3-0.2c0.1,0,0.2,0,0.4,0.3c0.2,0.4,0.4,0.5,0.2,0.2c-0.2-0.3-0.1-0.6,0.1-0.6
	c0.2-0.1,0.5-0.5,0.5-0.8c0-0.8,1-2.6,1.9-3.6c0.6-0.6,1.4-1.1,3.7-2.5c3.6-2.1,6.1-3.1,8.7-3.8c1.1-0.3,1.7-0.4,3.3-0.5
	c1.8-0.2,1.8-0.2,2,0.2l0.2,0.3l0-0.3c0-0.3,0-0.3,0.2-0.4c0.3-0.1,0.5-0.3,0.6-0.8c0.2-0.9,1.2-2.5,2-3.3c0.5-0.5,1.1-0.9,2.6-1.6
	c6.2-3.1,9.7-4.1,14.2-4.1h1.3l0.2,0.3c0.1,0.2,0.2,0.3,0.2,0.2c0-0.3,0-0.4,0.2-0.5c0.3-0.1,0.5-0.3,0.6-0.7
	c0.3-1.1,1.8-2.9,2.9-3.6c0.7-0.4,2.3-1.1,4.7-2c4.7-1.7,7.6-2.2,11.5-2l1.7,0.1l0.1,0.4c0.1,0.3,0.1,0.3,0.1,0.2
	c0-0.4,0-0.5,0.2-0.5c0.3-0.1,0.4-0.2,0.7-0.8c0.5-1,1.7-2.4,2.8-3.1c0.7-0.4,3.8-1.4,6.6-2.1c1.2-0.3,3.1-0.7,4.1-0.8
	c1.1-0.1,4.2-0.1,5.2,0c1,0.1,2.4,0.4,2.5,0.4c0,0,0.1,0.2,0.1,0.5l0.1,0.4l0-0.3c0-0.2,0.1-0.4,0.1-0.4c0.5-0.1,0.6-0.2,0.8-0.6
	c0.4-0.7,0.9-1.3,1.7-2c1.2-1,1.9-1.3,4.7-1.9c6.4-1.4,9.6-1.5,13.9-0.5l1.3,0.3l0.2,0.9l0-0.3c0-0.3,0.1-0.3,0.2-0.3
	c0.4,0,0.6-0.2,0.8-0.6c0.5-0.8,2.2-2.2,3.2-2.6c0.9-0.4,1.9-0.5,5.4-1c1.6-0.2,2-0.2,4.5-0.2c2.5,0,2.9,0,3.8,0.2
	c1.3,0.2,2.6,0.5,4,1l1,0.3l0.1,0.5c0.1,0.4,0.1,0.5,0.1,0.2c0-0.4,0.2-0.5,0.4-0.5c0.2,0.1,0.6-0.2,0.8-0.6
	c0.5-0.8,2.5-2.1,3.6-2.4c1.6-0.4,8.1-0.6,10.6-0.3c2.7,0.3,4.1,0.7,6.6,1.7l1.2,0.5l0,0.5c0,0.5,0,0.5,0.1,0.2
	c0.1-0.5,0.1-0.5,0.5-0.5c0.2,0,0.4-0.1,0.5-0.2c0.6-0.7,0.9-0.9,1.3-1.2c0.7-0.5,1.9-1,2.4-1.2c0.8-0.2,2-0.2,4.7-0.1
	c5.9,0.2,8.6,0.8,12.5,2.7l1.3,0.6l-0.1,1l0.1-0.4c0.1-0.4,0.1-0.4,0.4-0.3c0.3,0,0.4,0,0.8-0.4c0.8-0.7,2.3-1.5,3.5-1.8
	c1.2-0.3,6.5,0.2,9.9,0.9c2.6,0.6,5,1.5,7.2,2.8c0.5,0.3,1,0.6,1.1,0.7c0.2,0.1,0.2,0.2,0.2,0.5l0,0.4l0.1-0.2
	c0.1-0.2,0.2-0.2,0.5-0.2c0.3,0,0.4,0,0.8-0.3c0.8-0.7,2.4-1.3,3.7-1.5c0.7-0.1,1.5,0,3.9,0.4c4.7,0.9,7,1.6,9.6,2.9
	c1.8,0.9,4.4,2.6,4.3,2.9c0,0.1,0,0.3-0.1,0.4c0,0.2,0,0.2,0,0.1c0.1-0.3,0.3-0.4,0.5-0.3c0.2,0.1,0.5,0,1-0.3
	c0.6-0.5,2.1-1,3.4-1.1c1-0.1,2.3,0.1,6.1,1.2c4.9,1.4,7.8,2.9,11,5.7l0.6,0.5l-0.1,0.3c-0.2,0.4-0.1,0.4,0.1,0.2
	c0.2-0.2,0.2-0.2,0.4-0.1c0.3,0.2,0.5,0.1,0.9-0.2c1.1-0.7,3.6-1.1,4.8-0.8c1.2,0.3,5.2,1.7,7.2,2.6c2,0.9,3.8,1.9,5.2,3
	c0.9,0.7,2.8,2.4,3.2,2.9c0.2,0.3,0.2,0.3,0.1,0.6c-0.1,0.3-0.1,0.4,0,0.2c0.1-0.2,0.4-0.2,0.4-0.1c0.1,0.1,0.6,0.1,0.8-0.1
	c1-0.6,3.8-0.8,5-0.4c1,0.3,3.8,1.6,5.7,2.5c3.7,1.8,6,3.6,8.4,6.3l0.9,1l-0.4,0.8l0.3-0.3c0.2-0.3,0.3-0.3,0.5-0.1
	c0.3,0.2,0.6,0.2,1,0c0.5-0.2,1.3-0.3,2.5-0.3c1.3,0,1.8,0.1,3,0.7c1.6,0.7,4.7,2.5,6.1,3.5c3,1.9,4.9,3.8,6.9,6.6l0.5,0.7l-0.2,0.4
	l-0.2,0.4l0.2-0.2c0.2-0.2,0.5-0.2,0.5-0.1c0,0.2,0.5,0.2,1,0c0.5-0.2,0.7-0.2,1.7-0.2c1.9,0,2.7,0.2,4.4,1.3
	c1.2,0.7,3.8,2.5,4.6,3.1c1,0.7,2.4,1.9,3.1,2.7c1.5,1.4,2.3,2.6,3.5,4.4l0.8,1.2l-0.2,0.3l-0.2,0.3l0.3-0.2c0.3-0.2,0.3-0.2,0.5,0
	c0.2,0.2,0.2,0.2,0.6,0.1c1.3-0.2,2.2-0.2,3.4,0.1c1.1,0.2,1.7,0.5,3.4,1.8c5.6,4.2,8,6.7,10.1,11l0.5,1l-0.4,0.4l-0.4,0.4l0.3-0.3
	c0.2-0.1,0.3-0.3,0.4-0.3c0,0,0.2,0.1,0.3,0.2c0.2,0.2,0.4,0.2,1,0.1c0.9-0.2,3.1,0.3,4.2,0.9c0.7,0.4,1.9,1.5,4.6,3.9
	c3.2,3,5.3,5.9,6.7,9.6l0.3,0.8L510,90l-0.3,0.3l0.3-0.2c0.3-0.1,0.3-0.1,0.4,0c0.2,0.3,0.4,0.4,1,0.3c1.2-0.1,3.3,0.5,4.3,1.3
	c0.4,0.3,1.5,1.4,2.9,2.9c2,2.2,3.2,3.6,4.3,5.3c1.2,1.9,1.9,3.2,2.6,5.5l0.5,1.4l-0.3,0.3c-0.2,0.2-0.2,0.3-0.1,0.2
	c0.3-0.1,0.4-0.1,0.5,0.1c0.1,0.2,0.4,0.3,1.2,0.4c0.8,0.1,1.7,0.3,2.8,0.9c1,0.5,1.5,0.9,2.7,2.4c4.5,5.4,6.2,8.4,7.3,12.9
	c0.3,1.2,0.3,1.4,0.2,1.4c-0.1,0-0.2,0.1-0.3,0.2c-0.2,0.2-0.2,0.2,0,0.1c0.3-0.1,0.4-0.1,0.5,0.1c0.1,0.3,0.3,0.3,0.9,0.4
	c1,0.1,2.6,0.8,3.6,1.5c0.7,0.5,1.1,1.1,2.4,3c1.8,2.6,2.7,4,3.5,5.7c1.2,2.4,1.8,4.3,2.2,6.9c0.1,0.6,0.2,1.1,0.2,1.2
	c0,0.2,0,0.2-0.2,0.4c-0.2,0.1-0.3,0.2-0.3,0.2s0.1,0,0.3,0c0.2,0,0.3,0,0.4,0.2c0.1,0.2,0.2,0.3,0.5,0.3c0.9,0.2,1.1,0.2,1.7,0.5
	c0.7,0.3,1.8,1,2.2,1.4c0.6,0.6,1.6,2,3.1,4.8c2.5,4.6,3.6,7.8,3.8,11.8l0.1,0.9l-0.4,0.2c-0.2,0.1-0.4,0.2-0.3,0.2
	c0.1,0,0.3-0.1,0.4-0.1c0.2,0,0.3,0,0.3,0.2c0.1,0.3,0.3,0.5,0.8,0.6c0.5,0.1,1.7,0.7,2.3,1.2c1.3,1,1.8,1.6,3.1,4.4
	c2.8,5.9,3.6,8.9,3.6,13.3v1.3l-0.9,0.4l0.4,0c0.3,0,0.4,0,0.4,0.2c0.1,0.3,0.3,0.5,0.7,0.6c0.7,0.2,1.4,0.7,2.4,1.5
	c1.2,1,1.6,1.7,2.7,4.8c1.3,3.5,2,5.7,2.3,8.1c0.2,1.2,0.2,3.8,0.1,5.6l-0.1,0.9l-0.8,0.2l0.3,0c0.3,0,0.3,0,0.4,0.2
	c0.1,0.3,0.2,0.4,0.8,0.7c0.9,0.4,2.2,1.5,2.9,2.5c0.4,0.6,0.7,1.4,1.3,3.2c1,3.3,1.5,5.4,1.8,7.5c0.2,1.6,0.2,4.7,0,6.2
	c-0.1,0.6-0.2,1.3-0.2,1.5c0,0.3-0.1,0.4-0.3,0.4c-0.2,0-0.3,0.1-0.4,0.1c-0.1,0,0,0,0.2,0.1c0.3,0,0.3,0.1,0.4,0.3
	c0.1,0.4,0.1,0.4,0.6,0.7c0.7,0.3,1.2,0.8,2,1.7c1.2,1.4,1.4,1.9,2.2,6.3c1,5,1.1,8.3,0.3,11.8c-0.1,0.6-0.3,1.2-0.3,1.5
	c-0.1,0.4-0.2,0.5-0.6,0.5c-0.2,0-0.2,0,0.1,0.1c0.2,0.1,0.3,0.2,0.3,0.3c0,0.2,0.3,0.6,0.6,0.7c0.5,0.2,1.4,1.2,2,2.1
	c0.7,1.1,0.9,1.6,1.2,3.8c0.5,3.7,0.7,6.3,0.6,8.7c-0.1,2.1-0.4,3.9-1.2,6.1c-0.4,1.3-0.3,1.2-1.2,1.2c-0.2,0-0.2,0,0.1,0
	c0.4,0,0.6,0.1,0.5,0.4c-0.1,0.2,0.3,0.6,0.7,0.8c0.6,0.4,1.9,2.3,2.2,3.3c0.1,0.3,0.2,0.7,0.2,1c0.3,1.8,0.4,8.1,0.2,9.8
	c-0.3,2.8-0.9,4.7-2,7.3l-0.2,0.6l-0.5,0c-0.3,0-0.4,0.1-0.3,0.1c0.4,0,0.5,0.1,0.5,0.4c0,0.3,0.1,0.4,0.5,0.8
	c0.6,0.6,1.1,1.4,1.6,2.4c0.6,1.3,0.7,2.1,0.5,5.9c-0.2,5.8-0.8,8.5-2.7,12.3l-0.7,1.4l-0.5,0c-0.3,0-0.4,0-0.2,0
	c0.4,0.1,0.5,0.2,0.4,0.5c-0.1,0.3,0,0.3,0.5,0.9c0.6,0.7,1.2,1.8,1.6,2.9c0.4,1.1,0.3,2.4-0.2,6.7c-0.6,4.8-1.6,7.8-3.7,11.2
	l-0.6,1l-0.3,0c-0.3,0-0.3,0-0.1,0.1c0.2,0.1,0.2,0.2,0.1,0.4c-0.1,0.3,0,0.5,0.4,0.9c0.8,0.9,1.6,3.5,1.5,4.8
	c-0.1,1.3-0.9,5.4-1.3,7.1c-0.9,3.4-2.2,6.2-4.2,8.9c-0.4,0.5-0.6,0.8-0.7,0.8c-0.1,0-0.2-0.1-0.4-0.1l-0.2-0.1l0.2,0.1
	c0.2,0.1,0.2,0.2,0.2,0.6c0,0.4,0,0.5,0.2,0.7c0.8,0.9,1.4,3.3,1.2,4.8c-0.1,1.1-1.4,5.7-2.1,7.6c-1.3,3.6-2.5,5.6-4.9,8.4L583,392
	l-0.3-0.1c-0.4-0.1-0.4-0.1-0.2,0.1c0.2,0.2,0.2,0.2,0.1,0.4c-0.1,0.2-0.1,0.5,0.2,1c0.8,1.2,1,3.6,0.6,5.2
	c-0.2,0.8-1.3,3.9-1.9,5.4c-1.5,3.9-3.2,6.5-5.7,9c-0.9,0.9-1.1,1-1.2,0.9c-0.1,0-0.2-0.1-0.4-0.2l-0.2-0.1l0.2,0.2
	c0.2,0.2,0.3,0.4,0.1,0.5c-0.1,0.1-0.1,0.5,0.1,0.9c0.4,0.7,0.6,1.6,0.6,3.1c0,1.6,0,1.6-1.2,4.3c-2.7,6.1-4.4,8.5-7.8,11.5l-1.1,1
	l-0.3-0.2l-0.3-0.2l0.2,0.2c0.2,0.2,0.2,0.2,0.1,0.4c-0.2,0.2-0.2,0.7,0,0.9c0.4,0.5,0.5,3.1,0.3,4.2c-0.2,0.8-1.2,2.9-2.8,5.6
	c-2.3,4-4.6,6.5-7.8,8.8l-0.7,0.5l-0.6-0.4l0.1,0.2c0.1,0.2,0.1,0.5,0,0.5c-0.2,0-0.2,0.4,0,0.9c0.2,0.5,0.2,0.7,0.2,1.8
	c0,2.1-0.3,2.8-1.9,5.2c-2.2,3.4-3.7,5.3-5.2,6.9c-1.5,1.5-2.7,2.4-4.7,3.7l-0.9,0.5l-0.3-0.2l-0.3-0.2l0.2,0.2
	c0.2,0.3,0.2,0.4,0,0.6c-0.2,0.2-0.2,0.6-0.1,0.9c0.1,0.3,0.1,1.6,0,2.5c-0.2,1.5-0.5,2.2-1.9,3.9c-4.2,5.6-6.9,8.1-10.9,10.1
	l-1.2,0.6l-0.6-0.5l0.1,0.3c0.1,0.3,0.1,0.3,0,0.4c-0.3,0.2-0.3,0.4-0.2,1c0.1,0.7,0,1.6-0.3,2.7c-0.4,1.4-0.7,2-2.9,4.4
	c-4.2,4.7-6.8,6.7-11,8.4l-0.9,0.4l-0.4-0.4l-0.4-0.4l0.2,0.3c0.2,0.4,0.3,0.5,0.1,0.6c-0.2,0.1-0.3,0.3-0.3,1.1
	c0,0.8-0.1,1.5-0.4,2.5c-0.5,1.4-0.9,2-3,4c-2.7,2.6-4.2,3.8-6.2,5.1c-1.8,1.2-3.1,1.8-5.5,2.6l-1.3,0.4l-0.4-0.4
	c-0.2-0.2-0.3-0.3-0.2-0.2c0.2,0.3,0.2,0.5-0.1,0.7c-0.2,0.2-0.2,0.3-0.3,1c-0.1,1.4-0.8,3.2-1.7,4.2c-0.5,0.5-2.1,1.9-4,3.4
	c-2.5,1.9-4,2.9-6.2,3.9c-1.3,0.6-2.3,1-4.1,1.4l-1.4,0.4l-0.3-0.3c-0.2-0.2-0.2-0.2-0.2-0.1c0.1,0.3,0.1,0.4-0.1,0.5
	c-0.2,0.1-0.3,0.4-0.4,1c-0.1,1.4-1.2,3.5-2.4,4.4c-0.9,0.7-4,2.9-5.8,4c-1,0.6-3.3,1.7-4.3,2.1c-1.6,0.6-3.7,1.1-5.4,1.3
	c-0.2,0-0.5,0.1-0.5,0.1c-0.1,0-0.2-0.1-0.4-0.4c-0.3-0.5-0.4-0.6-0.2-0.1c0.2,0.4,0.2,0.5-0.2,0.7c-0.3,0.2-0.4,0.4-0.4,0.8
	c0,0.7-1.1,2.8-2,3.7c-0.5,0.5-1.4,1.1-3.4,2.2c-4.3,2.5-7.2,3.7-10.2,4.2c-0.9,0.2-2.8,0.4-3.4,0.4c-0.4,0-0.4,0-0.6-0.3l-0.2-0.3
	l0,0.3c0,0.3,0,0.3-0.2,0.4c-0.3,0.1-0.5,0.4-0.5,0.8c-0.1,0.7-1.1,2.3-1.9,3.1c-0.6,0.6-1.3,1.1-3.1,1.9c-6.2,3-9.4,3.9-13.8,3.9
	c-1.3,0-1.4,0-1.4-0.2c0-0.1-0.1-0.3-0.2-0.5c-0.1-0.3-0.1-0.2,0,0.3c0,0.2,0,0.2-0.2,0.3c-0.3,0.1-0.5,0.4-0.5,0.6
	c0,0.2-0.5,1.2-1,1.8c-0.2,0.3-0.7,0.9-1,1.2c-0.7,0.7-1.6,1.2-4.3,2.2c-3.5,1.3-5.7,2-8.1,2.3c-0.9,0.1-1.4,0.2-3.2,0.2
	c-1.2,0-2.4,0-2.7-0.1l-0.6-0.1l-0.3-0.8l0,0.3c0,0.3-0.1,0.5-0.4,0.5c-0.2,0-0.4,0.2-0.5,0.6c-0.2,0.5-0.7,1.3-1.5,2.1
	c-1.2,1.2-1.8,1.5-4.6,2.3c-5.1,1.5-6.9,1.8-10.1,1.8c-1.9,0-2.3,0-4.4-0.4l-0.6-0.1l-0.2-0.9l0,0.3c0,0.2-0.1,0.4-0.1,0.4
	c-0.5,0.1-0.6,0.2-0.8,0.6c-0.4,0.7-0.9,1.3-1.6,1.9c-1.3,1.1-1.9,1.4-4.2,1.9c-7,1.6-10.4,1.7-14.9,0.6l-1.1-0.3l-0.2-0.9l0,0.3
	c0,0.2-0.1,0.3-0.2,0.4c-0.4,0.1-0.6,0.2-0.8,0.6c-0.4,0.8-2.2,2.2-3.2,2.6c-0.8,0.4-2.5,0.6-5.7,1c-0.8,0.1-1.7,0.2-1.9,0.2
	c-0.7,0.1-4.2,0-5,0c-1.7-0.2-3.1-0.5-5-1.1l-1.1-0.4l-0.1-0.3c0-0.2-0.1-0.3-0.1-0.2c-0.1,0.3-0.2,0.4-0.4,0.3
	c-0.2-0.1-0.5,0.2-0.9,0.8c-0.5,0.7-2.5,2-3.6,2.2c-1.4,0.3-8.5,0.6-10.4,0.3c-2.8-0.4-4.5-0.8-7-1.9l-0.8-0.3l0-0.5
	c0-0.3-0.1-0.4-0.1-0.3c0,0.4-0.1,0.5-0.4,0.5c-0.3,0-0.4,0.1-0.8,0.5c-0.3,0.3-0.7,0.7-1,0.9c-0.7,0.5-2.1,1.1-2.6,1.2
	C294.5,600,291.9,600,289.7,599.9z M293.1,596.1c1.2-0.2,2.2-0.6,2.3-0.9c0-0.1-0.3-0.5-3.9-4.4c-5.6-6-7.9-8.6-11.4-12.6
	c-1.3-1.5-1.8-2.2-1.9-2.4c0-0.2,0-0.2-0.1-0.1c0,0.1-0.1,0.2-0.2,0.2c-0.1,0-0.8-0.3-1.5-0.7c-3.5-1.7-5.9-2.6-8.4-3.2
	c-2.7-0.6-6.5-0.6-7.1,0c-0.1,0.1-0.1,0.2,0.2,0.6c0.4,0.7,2.8,3.9,3.7,5.1c3.4,4.5,7,8.8,10.6,13c1.1,1.3,1.5,1.8,1.5,2
	c0,0.2,0,0.2,0.1,0c0-0.1,0.1-0.2,0.2-0.2c0.1,0,0.5,0.2,0.9,0.4c3.4,1.6,7.3,2.8,10.4,3.2C289.8,596.3,292.1,596.3,293.1,596.1z
	 M314.9,596c2.1-0.3,3.7-1,3.6-1.5c0-0.1-1-1-5.2-4.9c-3.7-3.3-7.2-6.7-10.4-9.8c-2.9-2.9-2.9-2.9-2.9-3.2c0-0.3,0-0.3-0.1,0.1
	c0,0.1-0.1,0.2-0.2,0.2s-0.6-0.2-1.1-0.4c-3.2-1.3-5.9-2.1-8.3-2.6c-2.9-0.5-7.2-0.3-7.8,0.5c-0.1,0.2-0.1,0.2,0.3,0.8
	c3,3.8,7.8,8.9,13.5,14.7c3.6,3.6,3.7,3.8,3.7,4.1c0,0.3,0,0.3,0,0.1c0.1-0.5,0.2-0.5,1.2-0.1c2.9,1.1,6.7,2,9.5,2.3
	C311.6,596.1,314.2,596.1,314.9,596z M270.8,594.5c0.8-0.1,1.4-0.4,1.5-0.6c0-0.2-0.4-0.8-5.3-6.9c-3.1-3.9-6.7-8.6-9.1-12
	c-0.9-1.3-1.1-1.6-1.1-1.8c0-0.2,0-0.2-0.1-0.1c0,0.1-0.1,0.2-0.2,0.2c-0.1,0-0.6-0.3-1.2-0.6c-5.6-3.4-9.7-4.8-13.6-4.8
	c-1.2,0-1.7,0.1-1.9,0.3c-0.1,0.1,0.1,0.5,1.1,2c3.2,5.4,8.2,12.7,12.6,18.6c0.6,0.8,0.7,1,0.7,1.2c0,0.2,0,0.2,0.1,0
	c0-0.1,0.1-0.2,0.2-0.2s0.5,0.2,0.9,0.5c3.8,2.2,8.7,3.9,12.1,4.3C268.2,594.7,269.9,594.7,270.8,594.5z M337.1,594.1
	c2.3-0.4,4.5-1.3,4.5-1.9c0-0.1-1.2-1.1-3.6-2.9c-6.1-4.7-10.7-8.4-14.7-11.9l-1.7-1.4l0-0.4c0-0.2,0-0.3,0-0.2
	c-0.1,0.5-0.1,0.6-0.2,0.6c-0.1,0-0.7-0.2-1.4-0.4c-2.9-0.9-5.3-1.5-7.8-1.8c-1.1-0.1-3.8-0.1-4.8,0c-2.1,0.3-3.7,0.8-3.6,1.2
	c0.1,0.3,4.7,4.9,8.2,8.2c2.8,2.6,5.8,5.2,8.8,7.8c1.8,1.5,2,1.7,2,1.9v0.2l0.1-0.3c0.1-0.1,0.1-0.3,0.2-0.3c0,0,0.5,0.1,1,0.3
	c2.4,0.7,5,1.2,7.8,1.4C333.2,594.3,336.3,594.3,337.1,594.1z M277,593.2C276.9,593.1,276.9,593.1,277,593.2c-0.1,0.1,0,0.2,0,0.2
	C277,593.3,277,593.2,277,593.2z M248.6,591.2c0.2-0.1,0.5-0.2,0.6-0.2c0.2-0.1,0.2-0.1,0-0.5c-0.1-0.2-1-1.6-2-3.1
	c-3.4-5.1-4-5.9-5.6-8.4c-1.7-2.6-4-6.3-5.4-8.5c-0.6-1-0.8-1.3-0.7-1.5l0.1-0.2l-0.3,0.4l-0.4-0.3c-2.7-1.9-3.9-2.7-5.7-3.7
	c-2.9-1.6-5.9-2.6-8.5-2.7c-1,0-1.4,0-1.6,0.2c-0.1,0.1-0.1,0.2,0.6,1.6c2.4,5,6.9,12.9,10.8,19.1c0.8,1.2,1.2,2,1.2,2.1
	c0,0.2,0,0.2,0.2,0c0.2-0.1,0.2-0.1,1,0.4c3.9,2.7,9.2,4.9,12.4,5.3C246.1,591.4,248.1,591.4,248.6,591.2z M357.6,590.7
	c2.5-0.2,4.8-0.9,6.2-1.9c0.5-0.4,0.7-0.6,0.7-0.8c0-0.1-1.6-1.2-3.6-2.4c-7.4-4.9-9.7-6.5-13.2-9c-3.3-2.4-4.3-3.1-4.3-3.3
	c0-0.1-0.1-0.2-0.1-0.3c0-0.1,0,0,0,0.1c0,0.2-0.1,0.3-0.1,0.4c-0.1,0-0.6-0.1-1.2-0.2c-6.4-1.5-11-1.6-14.8-0.3
	c-1.2,0.4-1.6,0.8-1.4,1c0.3,0.4,4.4,3.9,6.8,5.8c4.2,3.3,10.7,8.3,13.1,9.8c0.4,0.3,0.5,0.3,0.5,0.6l0,0.3l0-0.3
	c0-0.2,0.1-0.3,0.2-0.3c0.1,0,0.6,0.1,1.1,0.2c1.6,0.3,3.5,0.6,5.6,0.7C353.9,590.8,356.5,590.8,357.6,590.7L357.6,590.7z
	 M226.4,586.2c0.1-0.1,0.3-0.2,0.3-0.3c0-0.2,0-0.2-2.9-5.2c-3.8-6.7-6.2-11.1-8.3-15.3c-0.9-1.8-1-2.1-0.9-2.3
	c0.1-0.3,0.1-0.4,0-0.1c-0.1,0.1-0.2,0.2-0.2,0.2c-0.1,0-0.5-0.3-0.9-0.7c-1.9-1.6-4.1-3.2-5.9-4.4c-1.5-0.9-3.7-1.9-5.3-2.3
	c-1.6-0.4-3.2-0.6-3.6-0.4c-0.1,0.1-0.2,0.1,0.7,2.3c2.1,5.2,5.5,12.5,8.7,18.7c0.8,1.6,1.3,2.6,1.3,2.8c0,0.2,0,0.2,0.1,0.1
	c0.2-0.2,0.3-0.1,0.9,0.3c2.1,1.7,4.9,3.5,7.4,4.7c2.3,1.1,3.8,1.6,6.1,1.9c0.1,0,0.7,0,1.3,0C225.9,586.3,226.2,586.3,226.4,586.2z
	 M368.7,585.9C368.7,585.9,368.6,585.9,368.7,585.9c-0.1,0.1,0,0.2,0,0.2C368.7,586.1,368.7,586,368.7,585.9z M368.8,585.4
	c0.1-0.1,0.3-0.1,0.9,0c1.5,0.2,3,0.3,5.1,0.3c4.4,0,7.5-0.6,10-1.8c1.3-0.6,2.2-1.3,2.2-1.7c0-0.2-0.6-0.5-5.2-3.1
	c-6.8-3.7-10-5.6-14.4-8.3c-2.2-1.3-2.5-1.6-2.6-1.8c-0.1-0.3-0.1-0.3-0.1-0.1c0,0.4-0.1,0.4-1.2,0.2c-3.3-0.5-5-0.6-7.5-0.6
	c-2.5,0-4.3,0.3-6.2,0.9c-1.5,0.5-2.8,1.2-2.6,1.5c0.1,0.1,2.9,2.2,4.6,3.4c4.7,3.3,10.4,7,15.7,10.2c1.2,0.7,1.4,0.8,1.4,1
	c0,0.2,0,0.2,0,0C368.6,585.6,368.7,585.4,368.8,585.4z M204.2,579.5c0.3-0.1,0.3-0.1,0.2-0.3c-0.1-0.2-0.9-2-3.1-6.7
	c-1.4-3-2.9-6.4-4.1-9c-1.2-2.7-3.2-7.5-3.2-7.6c0-0.1,0-0.2,0.1-0.3c0.1-0.2,0.1-0.2-0.1,0c-0.1,0.1-0.2,0.1-0.2,0.1
	c0,0-0.6-0.6-1.3-1.2c-4.5-4.3-7.8-6.5-11.7-7.5c-0.9-0.3-1.7-0.3-2-0.2c-0.3,0.1-0.3-0.1,0.5,2.4c1.9,6,4.6,13.2,7.8,20.7
	c0.6,1.3,0.6,1.3,0.4,1.6c-0.2,0.4-0.2,0.5,0,0.1c0.1-0.1,0.2-0.3,0.3-0.3c0.1,0,0.3,0.2,0.5,0.4c0.5,0.6,2.4,2.2,3.4,2.9
	c2.7,2.1,5.6,3.7,7.8,4.4c0.7,0.2,2,0.5,2.6,0.6C202.9,579.6,203.9,579.6,204.2,579.5z M393.8,579.1c3.1,0,4-0.1,6.3-0.5
	c2.3-0.4,4-0.9,5.5-1.7c1.8-0.9,3.1-1.9,3.1-2.4c0,0-0.2-0.2-0.5-0.3c-0.5-0.2-3.4-1.6-3.7-1.7c-0.7-0.3-8.2-3.7-10.4-4.8
	c-0.8-0.4-1.9-0.9-2.5-1.2c-0.6-0.3-2.2-1.1-3.6-1.8c-2.2-1.1-2.5-1.3-2.6-1.5l-0.1-0.2l0,0.2c0,0.1-0.1,0.2-0.1,0.3
	c-0.1,0-0.9,0-1.7-0.1c-3.4-0.2-6.9-0.1-9.2,0.4c-2.9,0.6-6.2,2.1-6.2,2.8c0,0.1,1,0.8,3,2c5,3,11.3,6.5,17.2,9.5
	c1.5,0.8,2.4,1.2,2.4,1.3c0.1,0.2,0.1,0.2,0.1,0l0-0.2L393.8,579.1z M300.1,573.2c0-0.1,0.2-0.2,0.3-0.3c0.2-0.1,0.7-0.5,1.1-0.9
	c1.5-1.4,3-1.9,5.9-2.2c2.6-0.2,5.3-0.1,7.6,0.4c1.5,0.3,6.1,1.5,6.3,1.6c0,0,0.1,0.4,0.1,0.7c0.1,0.7,0.1,0.7,0.1,0.2
	c0-0.5,0-0.5,0.2-0.6c0.1-0.1,0.6-0.5,1-0.9c1.3-1.4,2.6-2.1,5.1-2.6c1.7-0.3,3.5-0.5,5.6-0.5c2.5,0,3.3,0.1,7.6,0.9
	c0.6,0.1,1.3,0.2,1.4,0.3c0.2,0,0.3,0.1,0.3,0.6c0.1,0.5,0.1,0.5,0.1,0.2c0-0.2,0.1-0.4,0.4-0.6c0.2-0.2,0.5-0.5,0.7-0.8
	c1.2-1.8,3.2-2.7,6.7-3.4c2.6-0.5,3.2-0.6,5.8-0.6c1.3,0,2.7,0,3.2,0.1c0.5,0.1,1.6,0.2,2.4,0.3c0.8,0.1,1.5,0.2,1.5,0.2
	c0,0,0.1,0.2,0.1,0.5c0.1,0.4,0.1,0.4,0.1,0.2c0-0.2,0.1-0.3,0.2-0.4c0.1-0.1,0.5-0.5,0.8-1c0.3-0.5,0.8-1.1,1.1-1.3
	c1.2-1.2,3-2,6.2-2.8c2.1-0.5,3.5-0.8,5.4-0.9c1.2-0.1,6,0,6.4,0.1c0.3,0.1,0.3,0.1,0.5,0.6c0.2,0.5,0.2,0.5,0.1,0.2
	c0-0.2-0.1-0.4-0.1-0.4c0,0,0.1-0.2,0.2-0.3c0.1-0.1,0.4-0.6,0.7-1c0.7-1.3,1.3-2,2.5-2.8c1.6-1.1,5.2-2.4,8.1-3
	c1.8-0.4,3.6-0.5,7-0.7c0.6,0,1.2-0.1,1.2-0.1c0.1,0,0.2,0.1,0.3,0.5c0.2,0.5,0.2,0.5,0.2,0.2c0-0.3,0-0.4,0.2-0.6
	c0.1-0.1,0.4-0.6,0.6-1c0.4-1,0.8-1.6,1.6-2.4c1.1-1.1,2.5-1.9,5-3c2.3-1,4-1.5,6.3-1.9c0.8-0.1,5.4-0.8,5.4-0.8
	c0,0,0.1,0.2,0.2,0.4c0.1,0.2,0.2,0.4,0.2,0.4s0-0.1-0.1-0.3c-0.1-0.3-0.1-0.3,0.1-0.5c0.2-0.2,0.3-0.4,0.6-1.3
	c0.8-2.4,2.6-3.9,6.9-6.1c2.5-1.2,4.4-1.8,8.5-2.7c1-0.2,1.9-0.4,2-0.4c0.1,0,0.2,0.1,0.4,0.4c0.1,0.2,0.3,0.4,0.3,0.4
	s0-0.1-0.1-0.2c-0.1-0.2-0.1-0.3,0.1-0.6c0.1-0.2,0.3-0.7,0.4-1.1c0.3-1,0.5-1.5,0.9-2.2c0.8-1.2,1.9-2.2,3.7-3.4
	c3.5-2.3,5.2-3.1,10.3-4.6l1.9-0.6l0.2,0.2c0.1,0.1,0.2,0.3,0.4,0.4l0.2,0.2l-0.1-0.3c-0.1-0.3-0.1-0.3,0-0.7c0.1-0.2,0.2-0.7,0.3-1
	c0.4-2.2,1.4-3.8,4.2-6c3.2-2.5,5-3.5,9.9-5.4l1.9-0.7l0.4,0.4c0.4,0.4,0.4,0.4,0.2,0.1c-0.2-0.3-0.2-0.3-0.1-0.6
	c0.1-0.1,0.2-0.7,0.2-1.2c0.1-1.2,0.3-1.7,0.7-2.5c0.9-1.8,3.3-4.3,6.2-6.4c1.6-1.2,3.8-2.4,7.3-4l0.8-0.4l0.4,0.4
	c0.3,0.3,0.3,0.3,0.2,0.1c-0.2-0.2-0.2-0.3-0.1-0.5c0.1-0.1,0.1-0.8,0.2-1.5c0.1-1.5,0.2-2.1,0.9-3.3c0.6-1,1.2-1.8,2.5-3.2
	c2.4-2.6,4.3-4.1,8.1-6.3c0.8-0.5,1.7-1,1.9-1.1l0.4-0.2l0.5,0.5c0.5,0.4,0.5,0.4,0.2,0.1c-0.3-0.3-0.3-0.4-0.2-0.6
	c0-0.1,0.1-0.9,0.1-1.7c0-1.4,0-1.5,0.2-2.2c0.4-1.1,0.9-2.1,1.9-3.4c1.9-2.5,4-4.8,6.3-6.4c0.7-0.5,3.9-2.8,4.2-3
	c0.1,0,0.3,0.1,0.6,0.3c0.4,0.3,0.4,0.3,0.2,0.1c-0.2-0.2-0.2-0.3-0.2-0.9c0-0.4,0-1.1-0.1-1.7c-0.1-0.9,0-1.1,0.1-1.8
	c0.4-1.6,1.5-3.6,3.4-6.2c1.2-1.7,3.1-3.5,5-5.1c3.1-2.5,3.1-2.5,3.2-2.4c0.1,0.1,0.3,0.2,0.5,0.3l0.3,0.2l-0.3-0.2
	c-0.3-0.2-0.3-0.3-0.3-0.7c0-0.2,0-0.7-0.1-1c-0.6-2.4-0.1-4.2,1.7-7.4c2-3.5,3.2-5,7.3-8.9l1.2-1.1l0.5,0.2c0.4,0.2,0.5,0.2,0.2,0
	c-0.2-0.2-0.2-0.3-0.3-0.6c0-0.2-0.1-0.8-0.3-1.2c-0.7-2.1-0.3-4.2,1.5-7.9c1.7-3.5,3-5.3,6.9-9.5l0.4-0.4l0.4,0.2
	c0.6,0.3,0.7,0.3,0.4,0.1c-0.3-0.2-0.3-0.2-0.4-0.6c0-0.2-0.2-0.7-0.3-1c-0.9-2.1-0.8-4,0.4-7.1c1.2-3.3,2.3-5.5,4.4-8.3
	c0.6-0.8,2.4-3.2,2.5-3.3c0,0,0.2,0,0.4,0.1c0.5,0.2,0.6,0.2,0.3,0c-0.2-0.1-0.2-0.2-0.3-0.4c0-0.2-0.2-0.7-0.4-1.2
	c-0.6-1.3-0.7-1.6-0.7-3.3c0-1.6,0.2-2.5,0.9-4.9c1-3.4,1.8-5,4.7-9.5l0.9-1.4l0.3,0c0.2,0,0.4,0.1,0.5,0.1c0.1,0,0.1,0-0.1-0.1
	c-0.2-0.1-0.3-0.2-0.3-0.4c0-0.2-0.2-0.6-0.5-1c-0.5-0.9-0.7-1.4-0.9-2.2c-0.3-1.4-0.2-3,0.3-5.5c0.8-3.7,1.5-5.6,3.9-10.1l1-1.8
	l0.5,0c0.5,0,0.5,0,0.2-0.1c-0.2-0.1-0.3-0.2-0.3-0.4c0-0.1-0.3-0.6-0.6-1c-0.9-1.3-1.2-2.1-1.3-3.4c-0.3-2.1,0.2-5.9,1-8.8
	c0.5-1.6,0.9-2.8,2.2-5.7l0.8-1.9l1.1,0l-0.4-0.1c-0.3-0.1-0.4-0.1-0.4-0.3c0-0.1-0.2-0.4-0.4-0.7c-1.2-1.5-1.5-2-1.9-3.6
	c-0.2-0.9-0.2-1-0.2-3.1c0-4.5,0.4-6.6,2.6-12.8l0.3-0.9l0.6,0c0.4,0,0.5-0.1,0.4-0.1c-0.4,0-0.7-0.1-0.7-0.2c0-0.2-0.3-0.6-1-1.3
	c-1.6-1.7-2.2-3.9-2.2-8.5c0-2.5,0.2-4.3,0.9-7c0.4-1.7,1.1-4.2,1.2-4.2c0,0,0.4-0.1,0.7-0.1c0.7-0.1,0.7-0.1,0.2-0.1
	c-0.4,0-0.5,0-0.6-0.2c0-0.1-0.5-0.6-1-1.1c-0.7-0.7-1.1-1.1-1.3-1.6c-1.4-2.5-2.1-8.3-1.4-12.9c0.2-1.3,0.9-5.2,1-5.3
	c0,0,0.3-0.1,0.6-0.1l0.5-0.1l-0.4,0c-0.3,0-0.4,0-0.4-0.1c0-0.1-0.4-0.6-1-1c-1-0.7-1.7-1.5-2.2-2.6c-0.6-1.3-1.3-3.8-1.7-6.6
	c-0.2-1.4-0.2-5.1,0-6.9c0.1-0.7,0.2-1.8,0.3-2.4c0.1-0.6,0.1-1.1,0.2-1.1s0.3-0.1,0.6-0.2c0.4-0.1,0.4-0.1,0.2-0.1
	c-0.3,0-0.4,0-0.8-0.4c-0.2-0.2-0.7-0.5-0.9-0.7c-1.6-0.9-2.8-2.8-3.7-6c-0.9-3.3-1.3-5.8-1.3-8.6c0-0.5,0-1.6,0-2.5
	c0-2.2,0-2.2,0.6-2.4c0.4-0.1,0.4-0.1,0.1-0.1c-0.3,0-0.4,0-0.5-0.2c-0.1-0.1-0.5-0.4-0.9-0.6c-1.3-0.7-2-1.3-2.8-2.5
	c-1.5-2.2-3-6.8-3.5-10.4c-0.2-1.6-0.4-6.1-0.3-6.1c0,0,0.2-0.1,0.4-0.2c0.3-0.2,0.3-0.2,0.1-0.1c-0.2,0-0.3,0-0.4-0.1
	c-0.1-0.1-0.7-0.4-1.3-0.7c-1-0.5-1.2-0.6-1.8-1.2c-1.1-1.1-1.9-2.2-2.9-4.5c-1.6-3.4-2.1-5.5-2.8-10.2c-0.1-1-0.3-2-0.3-2.1
	c0-0.2,0-0.3,0.4-0.5c0.3-0.1,0.5-0.2,0.5-0.3c0,0-0.2,0-0.4,0.1c-0.3,0.1-0.4,0.1-0.5-0.1c-0.1-0.1-0.4-0.2-0.7-0.3
	c-0.3-0.1-0.7-0.2-1-0.3c-2-0.7-3.7-2.7-5.7-6.7c-1.3-2.6-1.8-4.2-2.8-8.4c-0.2-1.1-0.5-2.1-0.5-2.2c0-0.1,0.1-0.2,0.3-0.4
	c0.4-0.2,0.4-0.3,0.1-0.2c-0.1,0.1-0.2,0-0.4-0.1c-0.1-0.1-0.6-0.2-1-0.4c-1.6-0.4-2.4-0.8-3.3-1.7c-2-1.8-4.6-6-5.8-9.4
	c-0.2-0.6-0.7-2.2-1.1-3.5c-0.7-2.3-0.7-2.4-0.5-2.5c0.1-0.1,0.3-0.2,0.4-0.4l0.3-0.2l-0.3,0.2c-0.3,0.1-0.3,0.1-0.5,0
	c-0.2-0.1-0.5-0.2-1.4-0.4c-1.3-0.2-2.2-0.7-3.5-1.7c-1.5-1.2-3.8-4.2-5.2-6.7c-0.7-1.3-1.4-2.8-2.7-6.2l-0.5-1.3l0.4-0.4
	c0.4-0.4,0.4-0.4,0.1-0.2c-0.3,0.2-0.3,0.2-0.6,0.1c-0.1-0.1-0.7-0.2-1.3-0.2c-1.5-0.2-2.2-0.4-3.4-1.2c-1-0.6-1.9-1.4-2.9-2.6
	c-2.7-2.9-3.7-4.5-5.9-9l-1-2.1l1-1l-0.4,0.3c-0.3,0.2-0.4,0.3-0.6,0.2c-0.1,0-0.7-0.1-1.3-0.1c-1.4-0.1-2.2-0.3-3.1-0.8
	c-1.4-0.7-2.7-1.7-4.6-3.7c-2.1-2-3.4-3.9-5.3-7.2c-0.5-0.8-1-1.7-1.1-2l-0.2-0.4l0.5-0.6c0.3-0.4,0.4-0.5,0.2-0.2l-0.3,0.3l-1.6,0
	c-1.9,0-2.4-0.1-3.8-0.8c-1.1-0.5-1.9-1.1-3.5-2.3c-2.1-1.7-3.7-3.3-5.1-5.2c-0.4-0.5-2.8-4-3-4.3c0-0.1,0.1-0.3,0.3-0.6l0.4-0.5
	l-0.3,0.3c-0.3,0.3-0.3,0.3-0.7,0.3c-0.2,0-0.8,0-1.3,0.1c-2,0.3-3.9-0.3-6.8-2.2c-2.2-1.5-3.4-2.5-5-4.1c-0.9-0.9-1.6-1.7-3.7-4.3
	l-0.7-0.9l0.1-0.2c0.1-0.1,0.2-0.4,0.3-0.5l0.2-0.3l-0.3,0.3c-0.3,0.3-0.3,0.3-0.7,0.3c-0.2,0-0.7,0.1-1.1,0.1
	c-1,0.2-1.7,0.3-2.4,0.2c-1.6-0.2-3.2-0.9-5.8-2.4c-2.6-1.6-4.3-2.9-7.1-5.9c-1-1-1.8-1.9-1.8-2c0,0,0.1-0.3,0.3-0.6
	c0.3-0.6,0.3-0.6,0-0.2c-0.2,0.3-0.3,0.3-0.6,0.3c-0.2,0-0.8,0.1-1.2,0.3c-0.7,0.2-0.9,0.3-1.9,0.3c-1.7,0-3-0.3-5.7-1.6
	c-2.5-1.2-4.5-2.4-6.5-4.1c-0.9-0.7-3.7-3.3-3.7-3.3c0,0,0.1-0.2,0.2-0.4c0.2-0.4,0.2-0.6,0-0.3c-0.1,0.1-0.2,0.2-0.5,0.2
	c-0.2,0-0.7,0.2-1.1,0.3c-1.2,0.5-1.7,0.6-2.9,0.5c-1.2-0.1-2.3-0.3-3.6-0.7c-3.6-1.2-6-2.5-8.8-4.6c-0.7-0.6-3.1-2.4-3.3-2.5
	c0,0,0-0.3,0.1-0.5c0.2-0.6,0.2-0.7,0-0.3c-0.1,0.2-0.2,0.3-0.5,0.3c-0.2,0-0.7,0.2-1.2,0.5c-1.1,0.5-1.6,0.7-2.8,0.7
	c-1.6,0.1-3.1-0.2-5.8-1c-3.1-1-4.7-1.8-8.7-4.3c-0.9-0.6-1.7-1.1-1.8-1.1c0,0,0-0.3,0.1-0.6c0.2-0.7,0.2-0.8,0-0.3
	c-0.1,0.3-0.2,0.4-0.5,0.4c-0.2,0.1-0.7,0.3-1.1,0.5c-1.9,1.2-3.9,1.3-7.7,0.6c-3.6-0.7-5.6-1.5-9.7-3.7l-2.1-1.1l0-0.5
	c0-0.5,0-0.5-0.1-0.2c-0.1,0.2-0.2,0.3-0.4,0.3c-0.2,0.1-0.6,0.3-0.8,0.5c-0.8,0.6-1.2,0.8-2,1.1c-1.4,0.5-3.5,0.5-6.2,0.2
	c-3.8-0.5-5.7-1.1-11.3-3.7l-0.5-0.2l0-0.5c0-0.5,0-0.5-0.1-0.2c-0.1,0.2-0.2,0.3-0.3,0.4c-0.3,0.1-0.6,0.3-1.2,0.8
	c-0.6,0.5-1.2,0.9-2,1.2c-1.3,0.5-1.8,0.5-4.3,0.5c-4.1,0-6.2-0.4-11.1-2.1c-2.3-0.8-2.5-0.9-2.5-1.1c0-0.2-0.1-0.2-0.3-0.1
	c-0.1,0.1-0.6,0.4-1,0.8c-0.8,0.7-1.3,1.1-2.1,1.4c-1.5,0.6-3.5,0.9-6.5,0.9c-2.4,0-4.2-0.2-6.4-0.7c-1.5-0.4-4.8-1.2-4.9-1.3
	c0,0-0.1-0.4-0.1-0.7c-0.1-0.7-0.1-0.7-0.1-0.2c0,0.4,0,0.5-0.2,0.6c-0.1,0-0.6,0.5-1.1,1c-0.6,0.7-1.1,1.1-1.5,1.3
	c-1.2,0.7-2.9,1.2-4.9,1.4c-3.4,0.4-5.3,0.4-8.3,0c-1-0.2-5.1-0.9-5.1-0.9c0,0-0.1-0.2-0.1-0.5c-0.1-0.5-0.1-0.5-0.1-0.1
	c0,0.2,0,0.3-0.1,0.3c-0.1,0-0.7,0.6-1.1,1.1c-1.2,1.7-3,2.6-6.4,3.3c-2.7,0.5-3.4,0.6-6,0.6c-1.4,0-2.7,0-3.2-0.1
	c-0.5-0.1-1.5-0.2-2.4-0.3s-1.5-0.2-1.6-0.2c0,0-0.1-0.2-0.1-0.5l-0.1-0.5l0,0.4c0,0.3,0,0.4-0.1,0.4c-0.1,0-0.5,0.4-1,1.2
	c-1.1,1.7-2.9,2.8-6.3,3.8c-3.1,0.9-5.2,1.2-8.1,1.1c-3,0-4.7-0.1-4.8-0.2c0,0-0.1-0.3-0.2-0.5c-0.1-0.4-0.1-0.4-0.1-0.1
	c0,0.2,0,0.4-0.2,0.6c-0.1,0.2-0.4,0.6-0.6,1c-1.1,2.1-2.8,3.3-6.6,4.6c-3.2,1.1-5.6,1.5-9.9,1.8c-0.9,0-1.9,0.1-2,0.1l-0.3,0
	l-0.2-0.5c-0.2-0.5-0.2-0.5-0.2-0.2c0,0.3,0,0.4-0.2,0.7c-0.1,0.2-0.4,0.7-0.6,1.1c-0.8,1.9-2.1,3-4.9,4.4c-1.7,0.9-2.8,1.3-4.2,1.8
	c-2.1,0.7-3,0.9-8.8,1.7l-0.3,0l-0.2-0.5c-0.3-0.5-0.4-0.7-0.2-0.3c0.1,0.3,0.2,0.6,0.1,0.6c-0.1,0-0.3,0.4-0.6,1.3
	c-0.3,1-0.6,1.4-1.2,2.1c-0.9,1.2-2.4,2.2-5,3.6c-2.8,1.5-4.9,2.2-9.4,3.2c-1,0.2-1.8,0.4-1.9,0.4c-0.1,0-0.2-0.1-0.4-0.4
	c-0.1-0.2-0.3-0.4-0.3-0.4c0,0,0,0.1,0.1,0.2c0.1,0.2,0.1,0.3-0.1,0.6c-0.1,0.2-0.3,0.7-0.4,1.1c-0.6,2.3-1.9,3.8-5.2,6
	c-3.1,2-4.9,2.8-10.3,4.4l-1.3,0.4l-0.2-0.2c-0.1-0.1-0.2-0.3-0.3-0.4l-0.2-0.2l0.2,0.3c0.1,0.3,0.1,0.3,0,0.5
	c-0.1,0.2-0.2,0.5-0.4,1.4c-0.2,0.9-0.4,1.5-0.8,2.2c-0.8,1.3-2.1,2.6-4.3,4.3c-2.8,2.1-4.7,3.1-9.6,5l-1.2,0.5l-0.4-0.5
	c-0.4-0.4-0.4-0.5-0.2-0.1c0.2,0.4,0.2,0.4,0.1,0.6c-0.1,0.1-0.2,0.7-0.2,1.3c-0.1,0.6-0.2,1.1-0.2,1.3c-0.4,1.5-1.6,3.2-3.6,5
	c-2.9,2.7-4.7,3.8-9.1,6l-2.1,1l-0.5-0.5l-0.5-0.5l0.3,0.4c0.2,0.3,0.3,0.4,0.2,0.6c-0.1,0.5-0.2,0.9-0.2,1.6c0,2.3-1.2,4.2-4.4,7.5
	c-1.9,1.9-3.5,3.2-6.3,4.8c-0.7,0.4-1.6,1-2.2,1.3l-1,0.6l-0.5-0.5c-0.5-0.4-0.5-0.4-0.2-0.1c0.3,0.3,0.3,0.4,0.3,0.6
	c0,0.1-0.1,0.8,0,1.5c0,1,0,1.4-0.2,2c-0.4,1.8-2.2,4.4-4.7,7.1c-1.8,1.9-3.1,2.9-7.8,6.1c-0.1,0.1-0.3,0-0.6-0.3
	c-0.5-0.3-0.5-0.3-0.2-0.1c0.2,0.3,0.3,0.3,0.2,0.7c0,0.3,0,0.7,0.1,1c0.4,2.2-0.2,4.1-2.1,7c-2.2,3.4-3.6,4.8-7.6,8
	c-1.7,1.4-1.8,1.4-2,1.3c-0.1-0.1-0.3-0.2-0.5-0.3l-0.3-0.2l0.3,0.2c0.3,0.2,0.3,0.3,0.3,0.6c0,0.2,0,0.7,0.1,1.1
	c0.3,1.4,0.3,2.4-0.1,3.8c-0.4,1.2-0.8,2.2-1.8,3.9c-1.1,1.8-1.9,3-3,4.4c-0.6,0.8-2.9,3-4.4,4.4l-0.8,0.8l-0.5-0.2
	c-0.4-0.2-0.5-0.2-0.2,0c0.2,0.2,0.2,0.3,0.3,0.6c0,0.2,0.1,0.7,0.2,1.1c0.5,1.6,0.5,2.9-0.2,5c-0.6,1.9-2.2,5-3.5,7
	c-0.9,1.3-1.5,2-3.4,4.1c-0.6,0.7-1.2,1.3-1.4,1.5l-0.3,0.4l-0.3-0.1c-0.6-0.2-0.7-0.2-0.4-0.1c0.2,0.1,0.3,0.2,0.3,0.4
	c0,0.1,0.2,0.7,0.4,1.2c0.4,1.1,0.5,1.7,0.5,2.6c0,1.4-0.3,2.8-1.1,5c-1.4,3.7-2.3,5.2-5.5,9.5c-0.6,0.8-1.1,1.4-1.1,1.4
	c0,0-0.2,0-0.5-0.1c-0.4-0.1-0.5-0.1-0.2,0c0.1,0.1,0.2,0.2,0.2,0.4c0,0.2,0.2,0.7,0.5,1.2c0.5,1.1,0.7,1.6,0.7,2.8
	c0.1,1.6-0.2,3.1-1,5.7c-1,3.1-1.8,4.8-4.5,9.1l-1,1.5l-0.3,0c-0.2,0-0.4-0.1-0.5-0.1c-0.1,0-0.1,0,0.1,0.1c0.2,0.1,0.3,0.2,0.3,0.4
	c0,0.2,0.3,0.7,0.5,1.1c1.2,2,1.3,3.9,0.6,7.5c-0.8,3.9-1.4,5.6-3.8,10l-1.1,2.1l-0.3-0.1c-0.5-0.1-0.7-0.1-0.4,0
	c0.2,0.1,0.3,0.2,0.3,0.4c0,0.1,0.3,0.6,0.6,1c0.9,1.3,1.2,2,1.3,3.5c0.2,1.9-0.1,5.3-0.8,8c-0.5,1.8-1.1,3.5-2.5,6.7l-0.8,1.7
	l-0.6,0l-0.6,0l0.4,0.1c0.3,0.1,0.4,0.1,0.4,0.3c0,0.1,0.2,0.4,0.4,0.6c0.7,0.8,1.1,1.4,1.2,1.7c0.2,0.5,0.5,1.4,0.7,2.2
	c0.2,0.9,0.2,3.2,0.1,4.9c-0.2,3.5-0.7,5.5-2.6,10.7l-0.3,0.9l-0.7,0c-0.4,0-0.5,0.1-0.4,0.1c0.5,0,0.7,0.1,0.7,0.2
	c0,0.2,0.3,0.6,1,1.3c1.7,1.8,2.2,4.2,2.1,9.1c-0.1,2.9-0.3,4.2-1.4,8.5c-0.3,1.1-0.6,2.1-0.6,2.1c0,0-0.4,0.1-0.7,0.1
	c-0.7,0.1-0.7,0.1-0.2,0.1c0.5,0,0.5,0,0.6,0.2c0.1,0.1,0.5,0.6,0.9,1c1,0.9,1.5,1.6,1.9,2.7c0.5,1.4,0.8,2.8,1.1,5.5
	c0.2,2.3,0.2,4.2-0.2,6.6c-0.2,1.1-0.9,5.1-0.9,5.1c0,0-0.3,0.1-0.6,0.1c-0.5,0.1-0.5,0.1-0.2,0.1c0.3,0,0.4,0,0.5,0.2
	c0.1,0.1,0.4,0.4,0.7,0.6c1.6,1.2,2.3,2.3,3.1,4.4c0.3,0.8,0.8,3.4,1,5c0.2,1.2,0.2,5.2,0,6.6c-0.1,0.5-0.2,1.5-0.3,2.4
	c-0.1,0.8-0.2,1.5-0.2,1.6c0,0-0.3,0.1-0.5,0.1c-0.5,0.1-0.5,0.1-0.2,0.1c0.3,0,0.4,0,0.7,0.3c0.2,0.2,0.6,0.5,1,0.8
	c1.7,1,2.8,2.8,3.6,5.8c0.5,1.7,0.5,1.9,0.7,2.8c0.4,1.9,0.6,3.7,0.6,5.9c0,2.9-0.1,4.7-0.2,4.7c0,0-0.3,0.1-0.5,0.2
	c-0.3,0.1-0.3,0.1-0.1,0.1c0.2,0,0.3,0.1,0.5,0.2c0.2,0.1,0.6,0.4,1,0.6c2.1,1.1,3.3,2.8,4.6,6.6c1.1,3.3,1.5,5.6,1.8,10
	c0,1,0.1,1.9,0.1,2c0,0.2,0,0.3-0.5,0.4c-0.5,0.2-0.6,0.3-0.1,0.2c0.2-0.1,0.3-0.1,0.5,0.1c0.1,0.1,0.6,0.4,1.2,0.6
	c1.1,0.5,1.5,0.8,2.2,1.5c1,1,1.9,2.5,2.9,4.7c1.1,2.4,1.6,4.1,2.1,6.5c0.2,0.9,0.8,5.6,0.8,5.7c0,0-0.3,0.2-0.6,0.3
	c-0.3,0.2-0.5,0.3-0.4,0.2c0.6-0.2,0.8-0.2,0.9-0.1c0.2,0.2,0.3,0.2,1.2,0.5c0.4,0.1,1,0.4,1.2,0.5c1.7,1,3.2,2.8,5,6.4
	c1.3,2.6,1.8,4.3,2.8,8.6c0.2,1,0.4,1.9,0.4,2c0,0.1-0.1,0.2-0.4,0.4c-0.3,0.2-0.5,0.3-0.5,0.3s0.2,0,0.3-0.1c0.3-0.2,0.3-0.2,0.5,0
	c0.1,0.1,0.7,0.3,1.2,0.4c1.3,0.4,1.4,0.4,2.1,0.9c1.1,0.7,2.1,1.8,3.2,3.4c2.5,3.6,3.4,5.6,5,11.2l0.4,1.4l-0.2,0.2
	c-0.1,0.1-0.3,0.2-0.4,0.4l-0.2,0.2l0.3-0.2c0.3-0.2,0.3-0.2,0.6,0c0.1,0.1,0.5,0.2,0.8,0.2c1.7,0.3,2.5,0.6,3.6,1.4
	c0.7,0.5,1.8,1.6,2.6,2.6c2.7,3.4,3.7,5.2,5.7,10.4l0.6,1.7l-0.4,0.4c-0.4,0.4-0.4,0.4-0.1,0.2c0.3-0.2,0.3-0.2,0.6-0.1
	c0.1,0.1,0.7,0.2,1.2,0.2c1.6,0.2,2.2,0.4,3.4,1.2c2.1,1.4,5,4.6,6.7,7.6c0.5,0.8,1.9,3.5,2.7,5.4l0.4,0.8l-0.4,0.4
	c-0.3,0.3-0.3,0.3-0.1,0.2c0.2-0.2,0.3-0.2,0.5-0.1c0.2,0.1,0.8,0.1,1.3,0.1c1.3,0,2,0.2,3,0.7c1.4,0.7,2.7,1.7,4.6,3.7
	c2.3,2.2,3.4,3.8,5.9,8.2c0.4,0.7,0.7,1.2,0.7,1.3c0,0-0.2,0.3-0.5,0.6c-0.5,0.5-0.5,0.5-0.1,0.2c0.3-0.3,0.4-0.3,0.6-0.3
	c0.1,0,0.8,0.1,1.6,0c1.2,0,1.4,0,2,0.2c1.5,0.4,2.8,1.2,4.9,2.9c2.1,1.6,3.6,3.2,5.1,5.1c0.4,0.6,2.9,4.1,3.1,4.5
	c0,0.1-0.1,0.3-0.3,0.6c-0.3,0.5-0.3,0.5-0.1,0.2c0.2-0.2,0.3-0.2,0.7-0.2c0.2,0,0.7,0,1,0c2.3-0.3,4.1,0.2,7,2.1
	c3.4,2.2,4.9,3.7,8.4,8l1.1,1.4l-0.2,0.3c-0.3,0.5-0.3,0.5-0.1,0.3c0.2-0.2,0.3-0.2,0.6-0.2c0.2,0,0.7-0.1,1.1-0.1
	c1-0.2,1.6-0.3,2.4-0.2c1.8,0.2,3.8,1.1,6.6,2.9c2.4,1.5,3.8,2.8,7.1,6.2l1.1,1.2l-0.2,0.5c-0.2,0.4-0.2,0.5,0,0.2
	c0.2-0.2,0.3-0.2,0.6-0.3c0.2,0,0.7-0.1,1-0.2c2.1-0.7,4.2-0.4,7.8,1.3c3.3,1.6,4.9,2.7,8.7,6.1c1.6,1.4,1.5,1.4,1.3,1.9
	c-0.2,0.3-0.1,0.4,0.1,0.1c0.1-0.1,0.2-0.2,0.4-0.2c0.1,0,0.7-0.2,1.2-0.4c1.2-0.5,1.8-0.6,3-0.5c1.2,0.1,2.3,0.3,3.8,0.8
	c3.5,1.2,5.7,2.4,8.5,4.5c0.8,0.6,3.2,2.4,3.3,2.5c0,0,0,0.2-0.1,0.4c-0.1,0.4-0.1,0.5,0,0.3c0.1-0.1,0.2-0.2,0.4-0.2
	c0.2,0,0.7-0.2,1.2-0.5c1.1-0.5,1.6-0.7,2.8-0.7c1.6-0.1,2.8,0.1,5.5,1c3.2,1,4.9,1.8,8.9,4.4l1.8,1.2l0,0.3c0,0.2-0.1,0.4-0.1,0.5
	c0,0.2,0,0.2,0.1-0.1c0.1-0.2,0.2-0.3,0.4-0.3c0.2,0,0.6-0.2,1-0.5c1.3-0.7,1.9-1,3.4-1.1c1.9-0.2,5.9,0.6,8.8,1.7
	c1.3,0.5,2.6,1.1,4.9,2.3c2.8,1.5,2.5,1.2,2.4,1.8c-0.1,0.5,0,0.5,0.1,0.2c0.1-0.1,0.2-0.3,0.2-0.3c0.2,0,0.6-0.2,1.2-0.7
	c2-1.5,4.3-1.7,8.9-1c2.9,0.4,4.8,1,9,2.9l1.9,0.8l0,1.1l0.1-0.4c0.1-0.3,0.1-0.4,0.3-0.4c0.1,0,0.4-0.2,0.7-0.4
	c1.4-1.1,2.1-1.5,3.7-1.8c0.8-0.2,1-0.2,3-0.2c4.5,0,6.5,0.4,12.7,2.6l0.9,0.3l0,0.7c0,0.4,0,0.6,0.1,0.4S300.1,573.3,300.1,573.2z
	 M412.5,571.4c-0.1-0.4,0.1-0.4,1.1-0.4c2.1,0,5.2-0.4,7.8-1.1c2.8-0.7,4.4-1.4,6.3-2.6c1.1-0.7,2.2-1.8,2.2-2.2
	c0-0.2-0.4-0.4-1.9-0.9c-10.8-3.9-14.8-5.4-20.6-7.8c-1.4-0.6-1.6-0.7-1.7-0.9c-0.1-0.2-0.1-0.2-0.1,0c0,0.1,0,0.2,0,0.3
	c0,0.1-0.8,0.1-2.1,0.1c-6.4,0.2-10.1,1-13.5,3.1c-0.7,0.4-1.4,1-1.4,1.2c0,0.1,0.6,0.5,3.4,1.9c5.3,2.7,14.2,6.7,19.6,8.7
	c0.4,0.2,0.6,0.2,0.6,0.5C412.5,571.7,412.6,571.7,412.5,571.4z M182.7,571c0.1-0.1,0.1-0.2,0.1-0.4c0-0.1-0.9-2.4-1.9-5.1
	c-2.9-7.7-4.5-12.2-6-17c-0.6-1.9-0.6-1.9-0.5-2.2l0.1-0.3l-0.2,0.2c-0.1,0.1-0.2,0.2-0.3,0.2s-0.5-0.5-1-1.1c-1.1-1.3-4-4.2-5-5
	c-1.6-1.3-3.2-2.3-4.8-3.1c-1.8-0.8-3.4-1.2-3.6-0.9c-0.1,0.4,1.8,8.2,3.5,13.8c0.7,2.4,2.1,6.7,2.9,9.1c0.7,2,0.7,2.1,0.6,2.3
	l-0.1,0.2l0.2-0.2c0.2-0.2,0.4-0.2,0.6,0.1c0.6,0.8,2.1,2.3,3.1,3.1c2.9,2.6,5.7,4.5,8,5.3c0.7,0.3,2.1,0.7,2.6,0.7
	C181.6,571.2,182.5,571.1,182.7,571z M257.2,570.3C257.2,570.3,257.2,570.3,257.2,570.3c0,0.2,0,0.3,0,0.2
	C257.2,570.5,257.2,570.4,257.2,570.3z M364,566.3C363.9,566.2,363.9,566.2,364,566.3c-0.1,0.1,0,0.2,0,0.2
	C364,566.4,364,566.3,364,566.3z M433.5,561.8c-0.1-0.4,0-0.4,1-0.5c4.8-0.5,10.2-2.2,12.9-4.1c1.3-0.9,2.5-2,2.8-2.6
	c0.2-0.4,0.1-0.6-0.2-0.7c-0.3-0.1-2.5-0.7-6.5-1.8c-8.4-2.3-17.7-5.1-17.8-5.5c-0.1-0.1-0.1-0.1-0.1,0.1c0,0.3,0.1,0.2-2.4,0.5
	c-4.2,0.4-7.6,1.2-10.2,2.5c-2.2,1-4,2.4-4,3c0,0.1,0.5,0.4,2,1c6.1,2.6,13.5,5.2,21.2,7.6c1,0.3,1.1,0.4,1.2,0.6
	C433.5,562.1,433.6,562.1,433.5,561.8z M161.8,561c0.1-0.1,0.1-0.1,0.1-0.4c0-0.2-0.7-2.6-1.5-5.3c-2.2-7.7-3.7-13.3-4.7-17.8
	c-0.3-1.3-0.3-1.3-0.2-1.6l0.1-0.3l-0.2,0.2c-0.1,0.1-0.2,0.2-0.3,0.1c-0.1,0-0.4-0.5-0.8-1c-2.9-4-5.8-6.9-8.5-8.6
	c-0.8-0.5-2.2-1.2-2.9-1.4c-0.7-0.2-1.2-0.3-1.3-0.1c-0.1,0.3,0.9,6.2,1.8,10.8c0.8,4.3,2.9,13.3,3.2,14.3c0.1,0.2,0,0.3-0.1,0.4
	l-0.1,0.2l0.2-0.1c0.1-0.1,0.2-0.1,0.3-0.1c0,0,0.3,0.4,0.7,0.8c1.8,2.3,4.4,5,6.8,6.8c0.9,0.7,2.2,1.5,3.2,1.9
	C159.3,560.8,161.3,561.3,161.8,561z M453.6,550.6c-0.1-0.2-0.1-0.5,0-0.5c0,0,0.5-0.1,1-0.2c3.9-0.7,8.5-2.4,11.3-4.2
	c2.1-1.4,4.3-3.8,3.8-4.2c-0.1-0.1-0.8-0.3-3.4-0.8c-0.9-0.2-2.8-0.5-4.1-0.8c-6.3-1.2-9.4-1.9-17.2-3.7c-0.2-0.1-0.4-0.1-0.4-0.1
	c0,0,0-0.1-0.1-0.2c-0.1-0.1-0.1-0.1-0.1,0.1c0,0.1,0,0.3,0,0.3c0,0-0.7,0.1-1.4,0.3c-2.2,0.4-4.1,0.8-5.9,1.3
	c-1.7,0.5-2.4,0.8-3.8,1.5c-1.9,0.9-3.4,1.9-4.4,3c-0.5,0.5-0.7,0.8-0.5,1c0.1,0.1,3,1.1,5.5,1.9c4.7,1.5,13.5,3.8,18.9,5
	c0.4,0.1,0.5,0.1,0.6,0.4C453.7,550.8,453.8,550.8,453.6,550.6z M141.9,549c0-0.2-0.4-2.5-1-5.2c-1.7-8.3-2.4-12.2-3.3-17.6
	c-0.3-2.1-0.3-2.2-0.1-2.4c0.1-0.2,0.1-0.2-0.1,0s-0.2,0.2-0.4-0.1c-0.1-0.1-0.4-0.5-0.6-0.9c-2.5-4.1-5.4-7.5-8-9.3
	c-1.5-1.1-3-1.8-3.6-1.7l-0.3,0l0,0.7c0.1,3.5,0.9,11.1,1.9,17.8c0.3,2.1,1.1,7.1,1.2,7.1c0,0-0.1,0.2-0.2,0.3l-0.2,0.3l0.2-0.2
	c0.1-0.1,0.3-0.2,0.3-0.2c0.1,0,0.3,0.3,0.6,0.7c1.4,2.2,3.6,4.9,5.6,6.7c2.2,2.1,4.2,3.4,6.3,4.1c0.4,0.1,0.7,0.2,0.8,0.2
	c0,0,0.3,0,0.5,0l0.4,0L141.9,549z M472.7,537.6c-0.1-0.1-0.1-0.2,0-0.3c0-0.1,0.4-0.2,0.9-0.3c4.3-1.2,8.8-3.3,11.5-5.5
	c1.5-1.2,3.1-3.2,3.1-4c0-0.1,0-0.2,0-0.2s-0.2,0-0.5-0.1c-0.2,0-2.7-0.3-5.6-0.7c-8-0.9-11-1.3-16.6-2.2c-2.5-0.4-2.9-0.5-3-0.6
	c-0.1-0.2-0.1-0.2-0.1,0.1c0,0.2,0,0.3-0.3,0.3c-5.7,1.5-8.7,2.6-11.2,4.3c-2,1.3-3.9,3.2-3.9,3.8c0,0.2,0.2,0.3,2.6,0.9
	c6.3,1.5,12.8,2.8,20.1,3.9c2.5,0.4,2.6,0.4,2.8,0.6C472.8,537.9,472.8,537.9,472.7,537.6z M122.8,536.1c0.2,0,0.1-0.5-0.5-6
	c-1-7.8-1.5-12.5-1.8-17.7l-0.1-1.9l0.4-0.4l-0.2,0.1c-0.1,0.1-0.3,0.1-0.3,0.1c-0.1,0-0.4-0.7-0.8-1.4c-1.8-3.5-3.6-6.1-5.5-8.1
	c-0.6-0.6-1.3-1.3-1.6-1.5c-1.4-1.1-3-2.1-3.6-2.1c-0.2,0-0.2,0-0.3,0.4c-0.1,0.5,0,9.2,0.1,11.4c0.2,4.6,0.5,8.2,0.8,11.9l0.2,2.3
	l-0.4,0.5l0.3-0.2c0.1-0.1,0.3-0.2,0.4-0.1c0.1,0,0.3,0.4,0.5,0.7c0.4,0.8,1.5,2.6,2.2,3.6c2.2,3.1,4.8,5.9,6.9,7.2
	c1.4,0.8,2.9,1.5,3.3,1.3C122.6,536.1,122.7,536.1,122.8,536.1z M490.8,523.3c-0.1-0.1-0.1-0.2-0.1-0.3c0-0.1,0.5-0.3,1-0.4
	c4.1-1.4,8.8-4.1,11.1-6.4c1.2-1.2,2.4-2.9,2.6-3.7c0.1-0.4,0.1-0.5-0.1-0.6c-0.1,0-1.8-0.1-3.8-0.2c-7.7-0.2-12.6-0.5-17.3-0.8
	c-4.2-0.3-4.4-0.3-4.6-0.5c-0.1-0.1-0.2-0.1-0.1-0.1c0.2,0.2,0.1,0.4-0.1,0.5c-0.1,0-0.7,0.3-1.4,0.5c-2.8,0.9-5.9,2.3-7.7,3.4
	c-1.3,0.8-2.6,1.8-3.7,2.9c-1.2,1.2-1.9,2.1-1.9,2.6c0,0.1,0.3,0.2,2.8,0.6c6.1,1,14.4,1.9,22.1,2.4c0.7,0,0.8,0.1,1,0.2
	C490.9,523.5,491,523.5,490.8,523.3z M104.9,521.3c0-0.1-0.1-2.6-0.2-5.6c-0.3-7.8-0.4-9.7-0.5-15l-0.1-4.8l0.3-0.3
	c0.2-0.3,0.3-0.3,0.1-0.2c-0.3,0.2-0.5,0.2-0.6,0.1c0-0.1-0.3-0.6-0.6-1.3c-1.9-4.6-3.9-7.7-6.2-10c-1.7-1.7-3.6-2.9-3.8-2.5
	c-0.1,0.1-0.4,4.5-0.6,6.9c-0.3,4.5-0.3,6-0.3,12.4c0,6-0.1,6.6-0.2,6.7c-0.1,0.1-0.1,0.1,0,0c0.2-0.2,0.3,0,0.8,0.9
	c1.5,3.5,4,7.3,6.4,9.7c1.4,1.4,3,2.6,4.2,3C104.5,521.5,104.9,521.5,104.9,521.3z M507.7,507.6c-0.1-0.2,0-0.3,0.9-0.7
	c4.8-2.1,9.6-5.7,11.6-8.6c0.8-1.2,1.2-2.1,1.3-2.6c0.1-0.6,0.6-0.6-4.8-0.4c-7.9,0.4-10.2,0.4-15.9,0.5l-4.9,0.1l-0.3-0.3
	c-0.3-0.2-0.3-0.3-0.2-0.1c0.4,0.5,0.3,0.5-1.1,1.1c-4.6,2-7.8,3.9-10.1,6.2c-1.8,1.8-3,3.7-2.4,3.8c0.4,0.1,4.9,0.5,8.4,0.7
	c4.2,0.2,7.4,0.3,12.5,0.3C506.9,507.5,507.5,507.5,507.7,507.6C507.8,507.8,507.8,507.7,507.7,507.6z M88.2,505.3
	c0.1-0.2,0.1-2.5,0.3-7.3c0.2-5.8,0.5-11.2,0.8-15.8l0.2-2.3l0.5-0.5l-0.2,0.1c-0.1,0.1-0.3,0.1-0.3,0.1c-0.1,0-0.2-0.4-0.4-0.8
	c-1.6-4.9-3.2-8.1-5.2-10.6c-0.6-0.8-2.1-2.3-2.8-2.8c-0.5-0.3-1.1-0.6-1.2-0.5c-0.2,0.2-0.9,4.9-1.4,8.9
	c-0.6,4.6-1.1,10.3-1.4,14.8l-0.1,2l-0.3,0.3l-0.3,0.3l0.3-0.2c0.2-0.1,0.3-0.2,0.4-0.1s0.3,0.5,0.5,1.1c1.5,4.1,3.6,7.8,5.9,10.4
	C85,504.2,88,506,88.2,505.3z M508.7,491.5c4.5-0.2,9.2-0.5,12.5-0.8l1.8-0.2l0.3,0.2l0.3,0.2l-0.2-0.3c-0.1-0.1-0.2-0.3-0.2-0.4
	c0-0.1,0.3-0.3,0.7-0.5c0.9-0.5,3.1-1.9,4.1-2.6c2-1.5,4-3.2,5.2-4.7c1.5-1.7,2.9-4.5,2.8-5.3c0-0.2-0.1-0.2-0.5-0.2
	c-0.2,0-2.3,0.2-4.6,0.5c-8.8,1.1-14.4,1.7-19.8,2l-0.8,0.1l-0.3-0.3l-0.3-0.3l0.2,0.3c0.1,0.2,0.2,0.3,0.2,0.4
	c0,0.1-0.3,0.3-0.7,0.5c-5.9,3-9.2,5.6-11.5,9.1c-0.4,0.6-0.9,1.6-0.9,1.9c0,0.1,0.1,0.2,0.1,0.2
	C497.5,491.7,506.7,491.6,508.7,491.5z M72.7,488c0.1-0.1,0.3-2.4,0.7-5.2c0.9-8.2,1.5-13,2.3-17.8c0.3-2,0.4-2.3,0.5-2.4l0.2-0.2
	l-0.3,0c-0.2,0-0.3,0-0.3-0.1c0-0.1-0.2-0.7-0.4-1.5c-1.6-6.2-3.3-9.8-6-12.6c-0.7-0.8-1.1-1.1-1.5-1.2l-0.3-0.1l-0.1,0.3
	c-0.2,0.4-0.9,3.3-1.5,5.9c-1.2,5.4-2.3,11.5-3.1,17.2c-0.3,2.1-0.3,2.1-0.5,2.3l-0.2,0.2l0.2-0.1c0.1-0.1,0.3-0.1,0.3,0
	c0.1,0,0.2,0.4,0.3,0.9c0.9,3.5,2.5,7.2,4.3,9.9c1.3,2,3.2,3.9,4.5,4.6C72.3,488.2,72.6,488.2,72.7,488z M515.3,475.3
	c5.5-0.4,12-1.2,19.3-2.4l2.8-0.5l0.6,0.5l-0.2-0.2c-0.1-0.1-0.2-0.3-0.2-0.4c0-0.1,0.4-0.4,0.9-0.7c3.7-2.4,7.7-6.2,9.3-9
	c0.9-1.5,1.6-3.3,1.6-4.1c0-0.4-0.1-0.5-0.4-0.5c-0.3,0-3.2,0.6-7.2,1.4c-5.5,1.1-11.4,2.2-16,2.9c-1.6,0.2-1.8,0.3-2,0.1l-0.2-0.1
	l0.1,0.2c0.1,0.1,0.1,0.2,0.1,0.3c0,0-0.6,0.4-1.3,0.8c-4.5,2.8-7.5,5.5-9.3,8.2c-1,1.4-1.6,2.7-1.6,3.3
	C511.6,475.7,511.2,475.7,515.3,475.3z M58.7,469.5c0.1-0.3,0.4-1.9,1.2-6c1.5-7.9,3.9-18.7,4.1-18.9c0.1,0,0.2-0.1,0.3-0.2
	c0.2-0.1,0.1-0.1-0.1,0c-0.2,0.1-0.3,0.1-0.3,0c0,0-0.2-0.7-0.3-1.4c-0.4-2.7-1.2-5.7-1.9-7.6c-0.4-1.2-1.4-3.2-2-4.1
	c-1.2-1.8-2.4-3.1-2.8-2.9c-0.3,0.1-2.3,6.5-3.8,12.2c-0.8,3.1-2,7.8-2.6,10.5c-0.4,1.8-0.5,2.3-0.7,2.4l-0.2,0.2l0.2,0
	c0.1,0,0.2,0,0.3,0.1s0.2,0.5,0.3,1c0.8,4,2.5,8.6,4.2,11.3c1.2,1.9,3.3,3.9,4,3.9C58.6,469.7,58.6,469.7,58.7,469.5z M527.1,458.1
	c5.8-0.8,14.7-2.7,21.6-4.4l1.4-0.4l0.6,0.3l-0.2-0.2c-0.1-0.1-0.2-0.3-0.2-0.3c0,0,0.3-0.3,0.7-0.6c3-2.2,6.1-5.6,7.9-8.3
	c1.3-2,2.4-5,2.1-6c-0.1-0.2-0.1-0.2-0.4-0.2c-0.2,0-2.1,0.5-4.1,1.1c-9.4,2.7-14.9,4.2-19.2,5.1l-1.2,0.3l-0.5-0.4l0.2,0.2
	c0.1,0.1,0.2,0.3,0.2,0.3c0,0-0.7,0.6-1.5,1.2c-2.8,2.1-5.2,4.2-6.5,6c-1.3,1.6-2.5,3.8-3,5.2c-0.2,0.5-0.2,1.1-0.1,1.2
	C524.8,458.4,524.8,458.4,527.1,458.1z M46.2,449.9c0.1-0.2,0.7-2.3,1.3-4.8c2.2-8.1,3.7-13.2,5.3-18.1c0.4-1.3,0.5-1.4,0.7-1.5
	l0.2-0.1l-0.3,0c-0.3,0.1-0.4-0.1-0.5-0.9c-0.2-3-0.7-5.8-1.2-7.9c-0.8-3-2.3-5.9-3.7-7.4c-0.6-0.6-0.6-0.6-1.6,1.6
	c-2.4,5.7-4.9,12.5-7.7,21.3c-0.3,1-0.4,1.1-0.6,1.2c-0.3,0.2-0.3,0.2,0,0.1c0.3-0.1,0.4,0,0.5,0.7c0.4,4,1.8,9,3.3,11.9
	c1.2,2.2,3.1,4.4,3.8,4.3C46,450.3,46.1,450.2,46.2,449.9z M537.7,440.1c5.5-1.2,14.2-3.7,21.5-6.1c2.3-0.8,2.3-0.8,2.6-0.6l0.3,0.1
	l-0.2-0.2c-0.2-0.3-0.2-0.3,0.1-0.6c0.8-0.6,2.3-2.1,3.1-3.1c2.6-2.9,4.5-5.7,5.3-8c0.6-1.6,0.9-3.3,0.8-4.1c0-0.2-0.1-0.3-0.3-0.3
	c-0.2,0-2.4,0.8-4.9,1.7c-6.2,2.4-11.8,4.4-16.9,6c-2,0.6-2.3,0.7-2.5,0.6c-0.2-0.1-0.2-0.1-0.1,0.1c0.1,0.1,0.1,0.2,0.1,0.2
	c0,0-0.5,0.5-1,1c-2.7,2.3-5.1,4.8-6.5,6.9c-1.5,2.2-2.9,5.5-2.6,6.4C536.5,440.3,536.5,440.3,537.7,440.1z M35.4,429
	c0.3-0.8,0.7-1.9,2.4-6.7c1.2-3.5,3.2-8.5,4.4-11.6c1.9-4.6,1.9-4.8,2.2-4.9c0.2-0.1,0.2-0.1-0.1-0.1l-0.3,0v-1
	c0-4.3-0.5-8.2-1.4-10.9c-0.8-2.4-2.4-5.1-3-5.1c-0.2,0-3.2,6-5.5,10.9c-1.5,3.3-3.4,7.8-4.7,10.9c-0.4,0.9-0.7,1.7-0.7,1.8
	c0,0.1-0.1,0.1-0.2,0.2c-0.2,0.1-0.2,0.1,0,0.1c0.1,0,0.2,0.1,0.3,0.1c0,0.1,0.1,0.5,0.1,1c0,4.1,1.3,10,2.8,12.7
	c1.1,2,2.4,3.6,3,3.6C35,429.9,35.1,429.8,35.4,429z M548.8,420.8c5.5-1.7,15.1-5.3,21.2-8c0.8-0.4,1.2-0.5,1.3-0.4
	c0.2,0,0.2,0,0.1-0.1c-0.2-0.2-0.1-0.3,0.3-0.7c1.1-1,3-3.4,4.2-5.2c2.4-3.6,3.6-6.6,3.7-9.4c0-1,0-1.4-0.3-1.5
	c-0.2-0.1-0.8,0.2-4.5,2c-6.8,3.2-11.1,5.1-15.2,6.8c-3.6,1.5-3.8,1.6-4,1.5c-0.5-0.2-0.5-0.2-0.2,0c0.2,0.1,0.3,0.2,0.3,0.3
	c0,0.1-0.6,0.7-1.2,1.4c-3.2,3.3-5.2,6-6.4,8.6c-1,2.2-1.6,4.6-1.3,5.2C546.8,421.3,547,421.3,548.8,420.8z M25.9,408.1
	c0.2-0.3,0.4-0.9,0.6-1.2c0.1-0.3,0.6-1.4,1.1-2.4c0.4-1,1.2-2.6,1.6-3.5c2.2-4.8,5-10.7,6.6-13.7c0.7-1.4,0.9-1.7,1.1-1.8l0.2-0.1
	l-0.2,0c-0.1,0-0.2-0.1-0.3-0.1c0-0.1,0-0.9,0.1-1.7c0.2-3.4,0.1-6.8-0.3-9.1c-0.4-2.3-1.4-4.8-2.2-5.9c-0.5-0.7-0.5-0.7-1.7,1.2
	c-2.9,4.6-6.5,11-9.8,17.6c-1.1,2.1-1.7,3.3-1.8,3.4l-0.2,0.1l0.4,0.1l0,3c0,2.5,0,3.2,0.2,4.3c0.6,4.3,1.4,6.9,3,9.2
	c0.6,0.8,1.1,1.4,1.4,1.4C25.5,408.7,25.7,408.5,25.9,408.1z M556.2,401.4c1.5-0.5,7.4-3.1,11.1-4.8c2.3-1.1,7.3-3.6,9.8-4.9
	c1.6-0.9,2-1,2.1-0.9c0.3,0.1,0.3,0.1,0.1-0.1c-0.1-0.1-0.2-0.2-0.2-0.3c0-0.1,0.2-0.4,0.5-0.8c3.1-3.8,5.7-8.9,6.3-12.3
	c0.2-1.2,0.2-3.3,0-3.7c-0.1-0.1-0.2-0.3-0.2-0.3c-0.2,0-1.5,0.8-8.3,4.6c-5.7,3.2-14.1,7.7-14.5,7.6c-0.2,0-0.2,0,0,0.1
	c0.1,0.1,0.1,0.2,0.1,0.2s-0.3,0.5-0.7,0.9c-3.9,4.6-6.2,8.7-7,12.4c-0.2,1-0.2,2.2-0.1,2.4C555.6,401.6,555.6,401.6,556.2,401.4z
	 M18.1,386.6c0.2-0.3,1-1.7,2.3-4.2c3.6-6.6,6.6-11.8,9.6-16.6c0.6-0.9,0.8-1.2,0.9-1.2c0.1,0,0.1,0-0.1-0.1
	c-0.2-0.1-0.2-0.2-0.2-0.3c0.2-1.1,0.6-4,0.7-5.7c0.2-3.6-0.1-6.3-0.9-9c-0.4-1.3-1.1-2.5-1.4-2.5c-0.1,0-0.6,0.6-2,2.5
	c-3.1,4.2-7.6,11-11.4,17.4c-0.9,1.4-1,1.7-1.2,1.7l-0.3,0.1l0.3,0c0.2,0,0.3,0.1,0.3,0.1c0,0.1,0,0.5-0.1,0.9
	c-0.2,1.4-0.3,2.9-0.3,5c0,4,0.5,6.9,1.5,9.2c0.7,1.6,1.6,2.9,2,2.9C17.8,386.9,18,386.7,18.1,386.6z M39.7,384.6c0,0-0.1,0-0.2,0
	c-0.1,0,0,0,0,0.1C39.7,384.7,39.8,384.6,39.7,384.6z M565,380.2c2.1-1,5.4-2.8,8.4-4.5c1.9-1,6-3.5,6.8-4c0.2-0.2,1.2-0.7,2.1-1.3
	c0.9-0.6,2-1.2,2.4-1.5c0.6-0.4,0.8-0.5,1-0.4l0.2,0.1l-0.4-0.3l0.2-0.2c0.1-0.1,0.3-0.5,0.6-0.9c0.6-0.9,1.9-3.1,2.6-4.5
	c1.5-3,2.4-5.8,2.6-8c0.2-2.2-0.1-4.1-0.6-4c-0.2,0-3.4,2.2-7.1,4.7c-3.7,2.5-10.3,6.7-13,8.4c-1.2,0.7-1.4,0.8-1.6,0.8l-0.2,0
	l0.2,0.2c0.1,0.1,0.2,0.2,0.2,0.2c0,0-0.3,0.5-0.7,1c-1,1.3-1.5,2.2-2.4,3.7c-2.2,3.6-3.4,6.9-3.5,10c-0.1,1.1,0,1.6,0.3,1.6
	C562.9,381.2,563.9,380.7,565,380.2z M31.3,364.4c0,0-0.1,0-0.2,0s0,0,0.1,0C31.3,364.5,31.4,364.5,31.3,364.4z M12.4,363.8
	c0.2-0.3,1.4-2,2.5-3.8c3.5-5.3,7.8-11.7,9.5-13.9c0.3-0.4,0.9-1.2,1.3-1.8c0.7-0.9,0.8-1.1,1-1.1l0.2,0l-0.3-0.1
	c-0.1,0-0.3-0.1-0.3-0.2c0-0.1,0.1-0.5,0.2-1c1.3-5.6,1.6-9.7,0.9-13.2c-0.3-1.6-0.9-3.1-1.3-3.2c-0.2-0.1-0.5,0.3-2.6,2.7
	c-3.5,4-8.5,10.5-12.2,15.8c-1.2,1.7-1.3,1.8-1.6,1.9C9.4,346,9.3,346,9.7,346c0.2,0,0.4,0,0.4,0.1c0,0.1-0.1,0.6-0.2,1.2
	c-0.5,2.4-0.7,4.2-0.8,6.8c-0.1,3.8,0.4,6.5,1.5,8.9c0.3,0.7,0.9,1.4,1.1,1.4C11.9,364.4,12.2,364.2,12.4,363.8z M569.6,359.7
	c4.7-2.7,13.6-8.7,19-12.9c1.2-0.9,1.3-0.9,1.5-0.9l0.3,0l-0.3-0.1c-0.1-0.1-0.3-0.2-0.3-0.2s0.2-0.5,0.5-1
	c1.9-3.3,3.5-7.5,4.1-10.8c0.3-1.8,0.2-4.7-0.2-5.7c-0.2-0.4-0.3-0.5-0.6-0.4c-0.1,0-1.6,1.3-3.4,2.7c-6.3,5.1-9.1,7.3-13.1,10.1
	c-3.3,2.4-3.6,2.6-3.9,2.6c-0.2,0-0.2,0,0,0.1c0.1,0,0.2,0.1,0.2,0.2c0,0-0.3,0.5-0.6,1.1c-3,5.1-4.3,8.4-4.8,11.9
	c-0.2,1.3-0.1,3.2,0.1,3.6c0.1,0.1,0.2,0.3,0.2,0.3C568.4,360.3,569,360,569.6,359.7z M573,343.2c0,0-0.1,0-0.2,0c-0.1,0,0,0,0,0.1
	C573,343.3,573,343.2,573,343.2L573,343.2z M570.5,342.8c0,0-0.1,0-0.2,0c-0.1,0,0,0,0.1,0.1C570.5,342.9,570.6,342.8,570.5,342.8z
	 M8.3,341.1c0.4-0.6,2.8-3.5,4.1-5.2c2.9-3.8,7.1-8.9,10-12.3c1.6-1.9,1.6-1.9,2-1.9c0.3,0,0.3,0,0.1,0c-0.5-0.1-0.5-0.1,0-1.8
	c1.3-4.2,2-7.9,1.9-10.7c-0.1-2.6-0.7-5.2-1.3-5.2c-0.1,0-2.9,2.7-4.9,4.7c-3.7,3.9-7.5,8.1-11.1,12.3c-1.7,2-1.7,2-2,2l-0.3,0
	l0.3,0.1c0.4,0.1,0.5,0.2,0.2,0.9c-0.1,0.4-0.3,1.1-0.5,1.6c-1.1,4.5-1.4,9-0.8,12c0.4,2.1,1.3,4,1.8,4C7.8,341.6,8,341.4,8.3,341.1
	z M572.6,338.9c0.4-0.2,2.2-1.5,3.7-2.7c4-3,9.8-7.6,14.5-11.7c1.2-1.1,1.7-1.4,1.9-1.4c0.2,0,0.2,0,0-0.1c-0.1,0-0.2-0.1-0.2-0.2
	s0.2-0.6,0.5-1.2c1.5-3.2,2.5-6.6,3-9.7c0.2-1.2,0.2-3.9,0-4.9c-0.2-1.3-0.6-2.3-0.9-2.4c-0.1,0-0.5,0.3-4.4,3.9
	c-6,5.6-8.2,7.6-12.3,11.1c-1.8,1.5-2.5,2.1-2.7,2.1c-0.2,0-0.2,0.1-0.1,0.1c0.1,0,0.2,0.1,0.2,0.2c0,0.1-0.2,0.5-0.4,0.9
	c-2.1,4.1-3.3,7.6-3.7,10.4c-0.3,2.5-0.2,5.1,0.3,5.7C572.2,339.2,572.3,339.2,572.6,338.9z M7.2,316.7c0.9-1,2.5-2.7,3.6-3.9
	c3.1-3.4,6.5-7,9.5-10c2.8-2.8,2.8-2.8,3.1-2.8c0.3,0,0.3,0-0.1-0.1c-0.1,0-0.2-0.1-0.2-0.2s0.3-0.7,0.6-1.5
	c1.2-2.9,2.1-6.1,2.5-8.3c0.2-1.1,0.2-4.8,0-5.7c-0.1-0.8-0.4-1.5-0.6-1.7c-0.2-0.2,0-0.3-2.4,1.8c-4.1,3.4-7.9,7-13.1,12.2
	c-3.4,3.3-3.6,3.5-3.9,3.6c-0.3,0-0.3,0-0.1,0.1c0.5,0,0.5,0.1,0,1.3c-1.8,4.7-2.6,10.1-2.2,13.5c0.3,2.1,0.9,3.7,1.4,3.7
	C5.5,318.5,6.3,317.8,7.2,316.7z M575.1,317.2c0.3-0.3,1.4-1.2,2.5-2.1c4-3.5,7.1-6.3,12.1-11.3c3.7-3.6,3.8-3.8,4.1-3.8
	c0.3,0,0.3,0,0.1,0c-0.5-0.1-0.5-0.2-0.1-1.2c1.4-3.6,2.2-7.4,2.3-10.8c0.1-1.9,0-2.9-0.4-4.3c-0.4-1.5-0.8-2.3-1.2-2.2
	c-0.1,0-0.9,0.8-1.8,1.8c-0.9,1-2.4,2.6-3.4,3.7c-3.2,3.5-6.5,7-9.5,10l-2.9,3l-0.4,0c-0.2,0-0.3,0-0.2,0c0.1,0,0.2,0.1,0.3,0.1
	c0.1,0,0.2,0.1,0.2,0.1c0,0.1-0.2,0.6-0.4,1.1c-1.3,3.2-2.2,6-2.6,8.3c-0.4,2.3-0.3,5.8,0.1,7.2c0.1,0.4,0.4,0.8,0.5,0.8
	C574.5,317.7,574.8,317.4,575.1,317.2z M576.3,294.8c3.5-3.3,10.2-10.6,14.7-16l1.5-1.8l0.4,0c0.3,0,0.3,0,0.1,0
	c-0.5-0.1-0.5-0.1-0.2-1.2c1.3-4.3,1.8-9.7,1.3-12.8c-0.3-1.7-1.1-4-1.6-4.4c-0.3-0.2,0-0.6-3.5,3.9c-4.4,5.6-8,10.1-11.3,13.9
	c-1.6,1.8-1.7,1.9-2,1.9c-0.3,0-0.3,0-0.1,0.1c0.4,0.1,0.4,0.2,0,1.4c-0.9,2.6-1.6,5.7-1.9,7.9c-0.1,1.1-0.1,3.8,0,4.8
	c0.3,2,0.8,3.6,1.1,3.6C575,296,575.6,295.5,576.3,294.8L576.3,294.8z M5.2,295.2c0.2-0.1,1.9-1.8,3.9-3.6
	c6.5-6.1,9.1-8.5,13.7-12.4c0.8-0.7,1.2-1,1.3-1c0.2,0,0.2,0,0-0.1c-0.1,0-0.2-0.1-0.2-0.2s0.4-0.9,0.8-1.8c1-2.1,1.4-3.1,2.1-4.9
	c1.2-3.2,1.6-6.4,1.3-8.9c-0.1-0.9-0.2-1.3-0.4-1.5c-0.1-0.1-0.2-0.1-0.7,0.2c-0.9,0.6-4.2,3.1-5.9,4.3c-3.7,2.8-8.3,6.6-11.9,9.8
	c-1.5,1.3-1.9,1.7-2.1,1.7c-0.2,0-0.2,0,0,0.1c0.3,0.1,0.2,0.3-0.2,1.1c-1.9,3.9-3.3,9.1-3.3,12.5c0,1.4,0.2,3,0.6,3.9
	c0.2,0.4,0.4,0.8,0.6,0.8C4.9,295.5,5.1,295.3,5.2,295.2z M24.8,278.3c0,0-0.1,0-0.2,0s0,0,0.1,0C24.7,278.4,24.8,278.3,24.8,278.3z
	 M574.4,273.9c3-3.2,9.6-11.6,14.1-17.8c1-1.4,1.5-2,1.6-2c0.2-0.1,0.2-0.1,0-0.1c-0.1,0-0.2-0.1-0.2-0.1c0-0.1,0-0.6,0.2-1.2
	c0.6-2.8,0.7-4.5,0.7-7.5c0-3.1-0.2-4.5-0.8-6.4c-0.6-1.7-1.4-3.1-1.8-3.1c-0.2,0-0.4,0.2-3.5,5c-3.8,5.8-7.1,10.6-9.1,13.3
	c-0.4,0.5-1,1.3-1.4,1.9c-0.6,0.8-0.8,1-0.9,1l-0.2,0l0.2,0.1c0.1,0,0.2,0.1,0.2,0.2c0,0.1-0.1,0.7-0.3,1.3c-0.4,1.8-0.7,3.3-1,5.6
	c-0.1,0.4-0.1,1.4-0.1,2.3c-0.1,2.3,0.1,3.8,0.6,5.9c0.3,1.2,0.8,2.3,1.1,2.3C573.8,274.5,574.1,274.2,574.4,273.9z M6.9,271.8
	c0.3-0.2,2-1.6,3.8-3.1c6.7-5.4,11.2-8.8,15-11.5c0.8-0.5,0.8-0.6,1.2-0.5l0.4,0.1l-0.3-0.1c-0.2-0.1-0.3-0.1-0.3-0.1
	c-0.1,0,0.1-0.3,0.6-1.2c1.2-2.1,1.5-2.6,2.3-4.2c1.8-3.7,2.6-6.5,2.6-9.5c0-1.2-0.1-1.6-0.3-1.9c-0.1-0.2-0.2-0.1-1,0.3
	c-0.5,0.3-1.3,0.8-1.9,1.2c-0.6,0.4-1.7,1.1-2.5,1.5c-3.8,2.3-10.5,7-15,10.4c-1.1,0.8-1.2,0.9-1.5,0.9l-0.3,0l0.3,0.1
	c0.1,0.1,0.3,0.2,0.3,0.2c0,0.1-0.2,0.5-0.5,0.9c-1.9,3.3-3.7,7.9-4.1,11.1c-0.4,2.6,0,5.8,0.7,5.8C6.2,272.3,6.6,272.1,6.9,271.8z
	 M29.6,257.2c0,0-0.1,0-0.2,0c-0.1,0,0,0,0,0C29.5,257.2,29.6,257.2,29.6,257.2z M590.6,254c0,0-0.1,0-0.2,0c-0.1,0,0,0,0,0
	C590.5,254.1,590.6,254,590.6,254z M7,253.6c0,0-0.1,0-0.2,0c-0.1,0,0,0,0.1,0C7,253.6,7.1,253.6,7,253.6z M571.2,252.9
	c0.6-0.6,4.2-5.7,6.2-8.7c2.1-3.2,5.1-7.8,7-11.1c0.8-1.3,0.9-1.5,1.2-1.6l0.3-0.1l-0.3,0c-0.1,0-0.3-0.1-0.3-0.1
	c0-0.1,0-0.6,0.1-1.2c0.3-2.4,0.4-5.6,0.1-8.2c-0.3-2.9-0.8-4.8-1.8-6.8c-0.4-0.9-1.1-1.7-1.4-1.9c-0.2-0.1-0.2-0.1-0.4,0.1
	c-0.1,0.1-0.7,1.2-1.4,2.4c-3,5.5-3.9,7.1-5.4,9.7c-1.8,3.2-3.4,5.8-4.9,8.3c-1,1.7-1.1,1.7-1.4,1.8l-0.3,0.1l0.3,0
	c0.2,0,0.3,0,0.4,0.1c0.1,0.1,0,0.5-0.1,1.3c-0.2,1.6-0.4,3.3-0.5,4.6c-0.1,1.3,0,4.2,0.1,5.2c0.3,2.5,1.1,5.1,1.9,6.2
	C570.9,253.1,571,253.1,571.2,252.9z M9.7,249.1c0.2-0.2,1.5-1,2.7-1.8c3.7-2.5,9.2-6.2,10.5-7c2.6-1.7,5.1-3.2,6.4-4
	c1.2-0.7,1.4-0.8,1.6-0.8l0.2,0.1l-0.2-0.2c-0.1-0.1-0.2-0.2-0.2-0.3c0-0.1,0.4-0.6,0.8-1.1c3-4.1,4.8-7.7,5.5-10.8
	c0.4-1.7,0.5-3.5,0.3-4c-0.1-0.2-0.1-0.3-0.3-0.2c-0.5,0.1-6.7,3.3-10.5,5.4c-3.4,1.9-8.7,5.1-11.2,6.7c-0.6,0.4-0.8,0.5-1,0.5
	l-0.2-0.1l0.2,0.1c0.1,0.1,0.2,0.2,0.2,0.2s-0.2,0.4-0.6,0.9c-0.6,0.8-1.2,1.9-2.1,3.5c-1.4,2.5-2.7,6.1-3.1,8.2
	c-0.2,1.1-0.2,2.7-0.1,3.6c0.1,0.8,0.3,1.4,0.5,1.4C9.2,249.3,9.5,249.2,9.7,249.1z M33.8,236.1c0,0-0.1,0-0.2,0c-0.1,0,0,0,0,0
	C33.8,236.2,33.8,236.1,33.8,236.1z M567.5,230.6c2.8-4.3,6.8-11.6,10.2-18.4c1.2-2.4,1.5-2.9,1.6-2.9l0.2-0.1l-0.5-0.1l0-3
	c0-2.5,0-3.2-0.2-4.3c-0.5-3.5-1-5.5-1.9-7.4c-0.9-1.8-2-3.2-2.5-3.2c-0.1,0-0.6,0.9-2,4.1c-1.1,2.4-2.7,6-4.1,8.9
	c-0.7,1.6-3.8,7.8-4.5,9.2c-0.3,0.7-0.6,1-0.7,1.1c-0.2,0.1-0.2,0.1,0,0.1c0.3,0,0.3,0.2,0.2,1.4c-0.1,1-0.1,1.9-0.2,4.1
	c0,2.4,0.3,5.2,0.9,7.2c0.6,2.1,1.6,4.1,2.2,4.5C566.5,232.1,566.5,232,567.5,230.6z M15.4,226c0.6-0.3,1.7-0.9,2.3-1.3
	c7.2-4.2,18.7-10.3,19.1-10.2c0.2,0,0.2,0,0-0.1c-0.1-0.1-0.1-0.2-0.1-0.2c0-0.1,0.3-0.5,0.7-0.9c1.7-2,3.6-4.5,4.6-6.3
	c1.5-2.7,2.5-5.6,2.6-7.7c0-0.8-0.1-0.9-0.7-0.7c-1.8,0.6-7.4,3.1-11.6,5c-1.9,0.9-8.7,4.3-8.9,4.4c-0.3,0.2-2.5,1.3-2.6,1.2
	c-0.2,0-0.2,0-0.1,0.1c0.2,0.2,0.1,0.3-0.4,0.9c-1.8,2.3-3.2,4.4-4.5,7c-1,1.9-1.6,3.5-1.8,4.9c-0.4,2.1-0.4,4.5,0.2,4.5
	C14.2,226.6,14.7,226.4,15.4,226z M560.7,210.7c0.5-0.9,2.6-5.1,3.6-7.1c2-4.2,4.4-9.6,6.1-13.9c0.7-1.8,0.9-2.1,1.1-2.2
	c0.2-0.1,0.2-0.1,0-0.1c-0.2,0-0.3-0.1-0.3-0.1c0-0.1,0-0.6,0-1.1c0-4-1.3-9.9-2.8-12.6c-1.1-2-2.4-3.6-3-3.6c-0.2,0-0.2,0.1-0.5,1
	c-0.2,0.5-0.6,1.5-0.8,2.3c-2.5,7.2-4.9,13.5-7,18.4c-0.8,2-1,2.4-1.2,2.5c-0.2,0.1-0.2,0.1,0.1,0.1l0.3,0l0,0.9c0,0.5,0,1.2,0,1.6
	c0.1,2,0.1,2.8,0.2,3.1c0,0.2,0.1,0.8,0.2,1.4c0.3,2.9,1,5.2,2.1,7.4c0.8,1.5,1.5,2.6,1.9,2.6C560.3,211.3,560.5,211,560.7,210.7z
	 M21.6,204.1c0.4-0.2,1.9-0.9,3.4-1.6c7.2-3.4,11.5-5.3,15.3-6.9c3.5-1.5,3.8-1.6,4.1-1.5c0.2,0.1,0.2,0.1,0.1,0
	c-0.1-0.1-0.2-0.2-0.2-0.2c0-0.1,0.6-0.7,1.3-1.4c4.2-4.4,6.5-7.9,7.4-11.5c0.4-1.5,0.4-2.2,0.1-2.2c-0.5,0-6.2,1.9-10.5,3.5
	c-3.9,1.4-9.2,3.5-12.4,4.9c-1,0.4-1.3,0.6-1.5,0.5c-0.2,0-0.2,0-0.1,0.1c0.2,0.2,0.1,0.3-0.5,1c-2.4,2.6-4.7,5.8-6,8.5
	c-0.8,1.7-1.2,2.8-1.5,4.4c-0.3,1.5-0.2,2.8,0.2,2.8C20.8,204.4,21.2,204.3,21.6,204.1z M553.5,189.2c1.9-4.5,4.4-11.2,6.3-17
	c0.6-1.9,1.5-4.7,1.7-5.3c0-0.1,0.2-0.2,0.3-0.3l0.2-0.1l-0.2,0c-0.1,0-0.2,0-0.3-0.1s-0.1-0.5-0.2-1c-0.5-4.5-2-9.6-3.8-12.4
	c-1-1.6-2.7-3.4-3.3-3.4c-0.3,0-0.2-0.1-1.8,5.8c-1.8,6.7-3.6,12.7-5.1,17.3c-0.5,1.4-0.5,1.5-0.8,1.6l-0.2,0.1l0.3,0
	c0.2,0,0.3,0,0.3,0.1c0,0.1,0.1,1,0.2,2c0.3,3.2,0.8,5.7,1.5,8c0.7,2.1,1.9,4.4,3,5.7c0.4,0.5,0.9,0.8,1,0.7
	C552.7,191.1,553,190.2,553.5,189.2z M30.9,182.3c0.7-0.3,2.1-0.8,3-1.1c6.1-2.3,12.2-4.5,17.4-6.2c1.8-0.6,2.1-0.6,2.3-0.6
	c0.2,0.1,0.2,0.1,0.1-0.1c-0.1-0.1-0.1-0.2-0.1-0.2c0,0,0.4-0.4,0.8-0.8c3-2.5,5.6-5.4,7.1-7.7c1.3-2.1,2.5-5.3,2.2-5.9
	c-0.1-0.1-0.5-0.1-3.2,0.6c-5.7,1.4-13.3,3.5-19.6,5.7c-2.1,0.7-2.2,0.7-2.4,0.6l-0.3-0.1l0.2,0.2c0.1,0.1,0.2,0.2,0.2,0.3
	c0,0-0.4,0.5-1,0.9c-2.3,2.1-5,5.3-6.4,7.7c-1.4,2.3-2.2,4.8-2.2,6.5C28.9,183,28.8,183,30.9,182.3z M543.3,171.5
	c0.3-0.5,1.9-5.5,2.8-8.8c1.2-4.3,2.7-9.9,3.6-13.9c0.3-1.3,0.5-2.1,0.6-2.2c0.4-0.3,0.4-0.3,0.2-0.2c-0.3,0.1-0.4,0-0.6-1.1
	c-0.9-4.6-2.8-9.6-4.9-12.2c-0.6-0.8-2-2.1-2.5-2.5c-0.3-0.2-0.6-0.4-0.8-0.4c-0.3,0-0.3-0.3-1.2,4.8c-0.9,4.7-2.1,10.8-2.6,13.2
	c-0.9,4-1.7,7.1-1.8,7.2c-0.3,0.2-0.4,0.3-0.2,0.2c0.4-0.2,0.4-0.1,0.6,0.6c0.6,3.4,1.2,6.2,2,8.4c0.4,1,1.3,2.8,1.8,3.7
	c0.9,1.4,2,2.8,2.6,3.1C543.1,171.7,543.2,171.7,543.3,171.5z M43.7,160.7c9.2-2.6,14.4-4,18.8-5l1.3-0.3l0.6,0.4l-0.2-0.2
	c-0.1-0.1-0.2-0.3-0.2-0.3c0-0.1,0.7-0.6,1.5-1.2c3.5-2.7,5.8-4.8,7.4-7.2c0.7-1,1.7-2.9,2-3.9c0.2-0.6,0.3-1.2,0.1-1.3
	c-0.1-0.1-3.2,0.4-6.1,0.9c-5.7,1-12.2,2.4-17.7,3.8l-1.6,0.4l-0.6-0.3l0.2,0.2c0.1,0.1,0.2,0.3,0.2,0.3c0,0-0.3,0.3-0.7,0.6
	c-3,2.3-6.2,5.7-8,8.4c-1.3,2.1-2.3,5-2,5.9c0.1,0.2,0.1,0.2,0.3,0.2C39.5,161.9,41.5,161.4,43.7,160.7z M533.6,156.9
	c0,0-0.1,0-0.2,0c-0.1,0-0.2,0.1-0.2,0.1c0,0,0.1,0,0.2,0C533.5,157,533.6,156.9,533.6,156.9z M532.4,152.9c0.1-0.1,0.9-3.3,1.4-5.5
	c1.3-5.9,2.5-12.2,3.3-18.3c0.2-1.6,0.2-1.6,0.5-1.8l0.2-0.2l-0.2,0.1c-0.1,0.1-0.3,0.1-0.3,0.1c-0.1,0-0.2-0.3-0.3-0.7
	c-1-3.9-3.1-8.5-5.2-11.3c-1.2-1.6-3.5-3.5-4.2-3.5c-0.3,0-0.3-0.2-1,6.1c-0.7,6.2-1.2,10.6-1.9,14.8c-0.6,3.8-0.7,4.6-0.9,4.7
	c-0.1,0.1-0.2,0.2-0.3,0.2c-0.1,0.1-0.1,0.1,0.1,0c0.5-0.2,0.5-0.3,0.9,1.4c1.5,6.2,3.5,10.3,6.4,13c0.6,0.6,1.2,1,1.4,1
	C532.3,153,532.4,153,532.4,152.9z M53.7,141.4c0.9-0.2,3-0.6,4.6-0.9c5.4-1.1,10.9-2.1,15.7-2.9c1.9-0.3,2-0.3,2.2-0.2l0.2,0.1
	l-0.1-0.2c-0.2-0.3-0.1-0.3,0.8-0.9c2.8-1.7,5.6-3.8,7.3-5.6c1.5-1.5,2.3-2.6,3.2-4.2c0.6-1,0.8-1.6,0.7-2l0-0.3l-0.7,0
	c-4.7,0.2-15,1.4-22.8,2.7l-2.3,0.4l-0.6-0.5l0.2,0.2c0.1,0.1,0.2,0.3,0.2,0.4c0,0.1-0.4,0.4-0.9,0.7c-2.7,1.7-6,4.7-7.9,6.9
	c-1.2,1.5-2.2,3.2-2.7,4.8c-0.2,0.8-0.4,1.6-0.2,1.8C50.8,142,51.1,141.9,53.7,141.4z M520.2,134.9c0.1-0.6,0.6-3.6,0.9-5.8
	c0.8-5.5,1.4-11.9,1.8-17.5l0.1-2.1l0.3-0.3c0.3-0.2,0.3-0.3,0-0.1c-0.4,0.3-0.5,0.2-0.9-0.9c-1.6-4.4-4.1-8.7-6.4-10.9
	c-1.5-1.5-3.3-2.7-4-2.7c-0.2,0-0.2,0-0.3,0.2c-0.1,0.2-0.2,2.9-0.3,7.5c-0.2,5.6-0.5,10.9-0.8,15.7l-0.2,2.3l-0.5,0.5l0.3-0.2
	c0.3-0.1,0.3-0.1,0.4,0c0.1,0.1,0.2,0.5,0.4,1c0.8,2.6,2.1,5.7,3.3,7.7c1.4,2.5,3.9,5.2,5.2,5.8C520,135.3,520.1,135.3,520.2,134.9z
	 M69,122.3c8.8-1.1,14.1-1.6,19.7-2l0.8-0.1l0.3,0.3l0.3,0.3l-0.2-0.3c-0.1-0.2-0.2-0.3-0.2-0.4c0-0.1,0.3-0.3,0.7-0.5
	c4.2-2.2,6.5-3.7,8.4-5.4c2-1.8,3.9-4.4,4.1-5.5l0-0.3l-0.4-0.1c-0.5-0.1-8.6,0-11.1,0.1c-4.4,0.2-10,0.6-13.1,0.9l-1.4,0.1
	l-0.6-0.5l0.2,0.3c0.1,0.1,0.2,0.3,0.2,0.4c0,0.1-0.3,0.2-0.7,0.4c-0.8,0.4-2.8,1.6-3.8,2.3c-2.3,1.6-5.2,4.2-6.3,5.8
	c-1,1.4-2,3.3-2,4.1c0,0.6,0,0.7,0.4,0.7C64.6,122.9,66.7,122.6,69,122.3z M506.5,118.4c0.1-0.1,0.3-3.3,0.5-5.5
	c0.3-5,0.4-9.1,0.4-15.2v-5.1l0.6-0.6l-0.3,0.2c-0.2,0.1-0.4,0.2-0.4,0.2c-0.1,0-0.2-0.3-0.3-0.6c-0.4-0.9-1.4-2.9-1.9-3.8
	c-2.2-3.7-4.7-6.6-6.9-8.1c-1.2-0.8-2-1.2-2.6-1.2c-0.4,0-0.4,0-0.5,0.2c0,0.1-0.1,0.5,0,0.9c0.1,1.2,0.4,7.8,0.5,11.2
	c0.1,1.8,0.1,5.5,0.2,8.3l0.1,5.1l-0.2,0.2c-0.2,0.2-0.2,0.2,0,0.1c0.1-0.1,0.2-0.1,0.3,0c0.1,0,0.4,0.7,0.7,1.5
	c1.8,4.1,3.5,7.1,5.5,9.2c1.1,1.2,2.6,2.4,3.6,3C506,118.5,506.4,118.5,506.5,118.4z M85.2,104.7c7-0.3,8.9-0.4,14.2-0.4
	c4.5-0.1,4.8,0,5,0.1c0.1,0.1,0.2,0.1,0.1-0.1c-0.1-0.2,0-0.3,1.2-0.8c1.3-0.5,4-1.8,5.2-2.5c2.5-1.4,4.4-2.9,5.8-4.6
	c1.4-1.6,2.1-2.8,1.6-3c-0.3-0.1-4.8-0.5-7.7-0.6c-4.3-0.2-5.6-0.3-11.6-0.3l-6.5,0l-0.3-0.3L92,92l0.2,0.3c0.1,0.2,0.2,0.3,0.1,0.4
	c0,0.1-0.3,0.2-0.6,0.4c-5.4,2.4-9.9,5.7-11.9,8.8c-0.4,0.6-0.8,1.3-1,1.6c-0.3,0.7-0.4,1.3-0.2,1.4c0.1,0,0.5,0.1,1.1,0
	C80.2,104.9,82.7,104.8,85.2,104.7z M491.6,102.7c0.1-0.3,0.1-6.8,0-9.3c-0.2-5.4-0.5-10.6-0.9-15.2l-0.1-1.3l0.4-0.5l-0.2,0.2
	c-0.1,0.1-0.3,0.2-0.4,0.1c-0.1,0-0.3-0.4-0.5-0.8c-0.5-0.9-1.9-3.2-2.6-4.1c-2-2.8-4.2-5.1-6.1-6.3c-1.2-0.8-2.9-1.6-3.5-1.7
	c-0.6,0-0.7,0-0.7,0.4c0,0.2,0.3,2.7,0.6,5.6c1,7.7,1.4,11.4,1.8,16.4c0.2,3.1,0.2,3.2,0.1,3.4c-0.1,0.2,0,0.2,0.1,0.1
	c0.2-0.2,0.3,0,0.8,0.8c1.8,3.6,3.8,6.6,5.8,8.6c1.5,1.5,3,2.7,4.3,3.3C491.3,102.9,491.6,103,491.6,102.7z M120.5,89.7
	c-0.2-0.3,0-0.4,0.9-0.7c4.5-1.5,7.7-3,10.1-4.8c1.9-1.4,3.7-3.5,3.7-4.2c0-0.2-0.2-0.2-2.5-0.6c-6.1-1-13.8-1.9-22.5-2.5
	c-0.6,0-0.8-0.1-1-0.3l-0.2-0.2l0.1,0.2c0.1,0.1,0.1,0.3,0.1,0.3c0,0.1-0.4,0.2-0.8,0.4c-0.9,0.3-3.3,1.3-4.2,1.8
	c-2.4,1.2-4.9,2.8-6.4,4.2c-2,1.8-3.8,4.6-3.1,4.9c0.1,0,1.7,0.1,3.7,0.2c8.6,0.3,12.5,0.5,17.3,0.8c4.1,0.3,4.5,0.3,4.7,0.5
	C120.6,89.9,120.6,89.9,120.5,89.7z M475.5,88.4c0.3-0.2-0.7-10.1-1.7-17.5c-0.4-2.5-1.3-8.2-1.3-8.2c0,0,0.1-0.2,0.2-0.4l0.3-0.3
	l-0.2,0.2c-0.1,0.1-0.3,0.2-0.4,0.2c-0.1,0-0.4-0.4-0.7-0.8c-1.8-2.9-4.5-5.9-7-7.9c-2-1.7-4.6-3-6-3h-0.5l0,0.3
	c0,0.3,0.1,1.1,1.4,7.1c1.2,6,2.1,10.5,2.8,15.3c0.2,1.3,0.4,2.5,0.4,2.6c0,0.1-0.1,0.3-0.1,0.4c-0.1,0.2-0.1,0.2,0.1,0
	c0.2-0.2,0.2-0.2,0.4,0.1c0.1,0.1,0.4,0.6,0.8,1.2c2.5,4.2,5.4,7.5,8.3,9.4c1.2,0.8,2.4,1.4,3.1,1.5c0.1,0,0.2,0,0.2,0
	C475.4,88.5,475.4,88.4,475.5,88.4z M137.5,76.1c0-0.3-0.2-0.2,1.4-0.6c4.5-1.1,7.7-2.4,10.2-4c2-1.3,3.8-3.1,3.8-3.7
	c0-0.2,0-0.2-2.2-0.8c-6-1.5-12.9-2.8-20.7-4c-2.6-0.4-2.6-0.4-2.8-0.6l-0.2-0.2l0.1,0.3c0.1,0.3,0.1,0.4-0.7,0.6
	c-2.2,0.6-4.7,1.5-7,2.6c-3.1,1.5-4.9,2.8-6.4,4.6c-0.7,0.8-0.9,1.1-1.2,1.7c-0.2,0.5-0.3,0.8-0.1,0.8c0.2,0.1,1.3,0.2,3.2,0.4
	c10,1.1,13.4,1.5,19.3,2.5c2.4,0.4,2.9,0.5,3,0.6C137.6,76.4,137.6,76.4,137.5,76.1z M458.4,74.8c-0.1-1.1-0.8-5.9-1.7-10.3
	c-0.9-4.4-1.6-7.9-2.8-12.8c-0.4-1.8-0.5-1.9-0.3-2.1l0.1-0.2l-0.2,0.1c-0.1,0.1-0.2,0.1-0.3,0.1s-0.3-0.4-0.7-0.8
	c-2.8-3.6-7-7.3-9.9-8.8c-1.6-0.8-3.4-1.3-4.1-1.1l-0.3,0.1l0,0.4c0,0.2,0.5,1.9,1,3.7c1.7,6,2.1,7.2,2.7,9.5c0.7,2.6,2,7.6,2.5,9.8
	c0.3,1.5,0.3,1.5,0.2,1.8l-0.1,0.2l0.2-0.2c0.1-0.1,0.3-0.1,0.3-0.1c0.1,0,0.4,0.5,0.8,1c2.5,3.4,5,6.1,7.2,7.7
	c1.9,1.4,4.3,2.5,5.1,2.4l0.4,0L458.4,74.8z M155.6,64.1c0-0.2,0-0.3,0.1-0.3c0.1,0,0.8-0.2,1.6-0.3c5.7-1,9.4-2.3,12.4-4.6
	c1.3-1,2.1-1.8,2-2.2c-0.1-0.1-5.2-1.8-8.1-2.7c-5.4-1.6-13.2-3.6-16.4-4.2c-0.4-0.1-0.5-0.1-0.6-0.4c-0.2-0.3-0.3-0.4-0.2-0.1
	c0.1,0.2,0.1,0.5,0,0.5c0,0-0.5,0.1-1,0.2c-4.4,0.8-9.6,2.9-12.2,4.9c-0.8,0.6-2.1,1.9-2.5,2.4c-0.4,0.6-0.6,1-0.4,1.1
	c0.1,0.1,0.3,0.2,5.8,1.2c8.5,1.6,12.1,2.4,18.1,3.8c1.1,0.3,1.3,0.3,1.4,0.5C155.6,64.4,155.6,64.4,155.6,64.1z M440.3,63.5
	c0.1-0.3-1.6-7.1-3.2-12.8c-0.7-2.5-2.3-7.6-3.2-10.2c-0.6-1.6-0.7-2.1-0.6-2.2c0.1-0.1,0.1-0.2,0-0.1c-0.2,0.2-0.4,0.1-0.6-0.2
	c-0.6-0.8-2.1-2.3-3-3.1c-3.2-2.9-6.1-4.7-8.6-5.5c-1.5-0.5-3.3-0.8-3.7-0.5c-0.1,0-0.2,0.2-0.2,0.3s0.9,2.6,2,5.6
	c2.9,7.8,4.5,12.2,5.9,16.9l0.5,1.6l-0.3,0.6l0.2-0.2c0.1-0.1,0.2-0.2,0.3-0.2c0,0,0.5,0.5,1,1.1c1.2,1.4,3.9,4.2,5,5
	c2.3,1.9,4.6,3.2,6.9,3.8C439.6,63.6,440.2,63.6,440.3,63.5z M474.4,60.1C474.5,60,474.5,60,474.4,60.1c-0.2,0.1-0.2,0.1-0.1,0.1
	C474.2,60.3,474.3,60.2,474.4,60.1z M174.5,53.5c-0.1-0.3,0-0.3,1.1-0.4c3.7-0.3,7.7-1,10-2c2.7-1,5.4-2.9,5.4-3.6
	c0-0.1-0.3-0.3-2.2-1.1c-5.4-2.3-13.8-5.3-21-7.5c-1-0.3-1.1-0.3-1.2-0.6c-0.2-0.3-0.2-0.3-0.1,0c0.1,0.1,0.1,0.2,0,0.3
	c0,0.1-0.5,0.1-1,0.2c-3.2,0.3-7.2,1.3-9.8,2.4c-0.7,0.3-2.2,1.1-2.7,1.4c-1.2,0.7-2.7,2-3.1,2.7c-0.3,0.5-0.3,0.7,0,0.8
	c0.3,0.1,3.3,1,6.8,1.9c5.8,1.6,10.2,2.9,15.1,4.5c2.3,0.8,2.5,0.8,2.6,1C174.6,53.8,174.6,53.8,174.5,53.5z M421.2,53.2
	c0.1-0.1,0.1-0.2-0.3-1.5c-1.7-5.7-4.9-14.3-8.1-21.7c-0.4-1-0.5-1.2-0.4-1.4l0.1-0.2l-0.2,0.2c-0.1,0.1-0.2,0.2-0.2,0.2
	c0,0-0.3-0.3-0.7-0.6c-3-2.9-7-5.6-10.1-6.8c-1.9-0.8-4.6-1.2-5.4-0.8c-0.3,0.1-0.3,0.1-0.2,0.3c0.1,0.3,0.5,1.1,2.5,5.5
	c3.1,6.7,5.2,11.4,7.3,16.5c0.4,1.1,0.5,1.3,0.4,1.5c-0.1,0.2-0.1,0.2,0.1,0.1c0.1-0.1,0.2-0.1,0.2-0.1c0,0,0.6,0.6,1.3,1.2
	c3.2,3.1,5.9,5.1,8.4,6.3C418.2,52.9,420.7,53.6,421.2,53.2z M194.2,44.5c0-0.1,0-0.2,0-0.3c0-0.1,0.8-0.1,2.2-0.1
	c1.2,0,2.3-0.1,2.5-0.1c0.2,0,0.8-0.1,1.4-0.1c3.1-0.3,6-1,8.2-2.1c1.6-0.8,2.7-1.6,2.7-2c0-0.1-1.6-1-4.8-2.6
	c-5.2-2.6-11.2-5.2-17.1-7.6c-1.5-0.6-1.6-0.7-1.8-0.9c-0.1-0.2-0.1-0.3-0.1,0c0.1,0.4-0.1,0.5-1.1,0.5c-3.5,0-8.5,1-11.6,2.2
	c-2.1,0.9-4.5,2.6-4.8,3.5c-0.1,0.3-0.4,0.2,6.3,2.6c6.8,2.4,11.3,4.2,16.1,6.2C193.8,44.1,194.1,44.2,194.2,44.5
	C194.2,44.7,194.3,44.7,194.2,44.5z M401.5,44.5c0.1,0,0.1-0.1,0.1-0.2c0-0.3-2.3-5.7-3.8-9c-1.6-3.5-4.1-8.6-5.9-12.2
	c-0.6-1.2-1.1-2.2-1.1-2.3s0-0.2,0.1-0.3l0.1-0.2l-0.1,0.2c-0.1,0.1-0.2,0.2-0.3,0.2c-0.1,0-0.5-0.3-1-0.7c-3.7-3-8.4-5.4-11.7-6.1
	c-2.1-0.4-4.4-0.4-4.4,0.1c0,0.2,0.4,0.9,2.9,5.3c3.8,6.7,6.1,10.9,8.2,15.2c0.8,1.6,1.1,2.2,1,2.3c-0.1,0.2-0.1,0.2,0.1,0
	c0.2-0.2,0.2-0.2,1.2,0.7c2.6,2.2,5.2,4,7.4,5.2c1.8,0.9,3.8,1.6,5.3,1.8c0.3,0,0.7,0.1,0.8,0.1C400.6,44.6,401.3,44.6,401.5,44.5z
	 M381,37.4c0.2-0.1,0.3-0.1,0.3-0.2c0,0-0.3-0.7-0.7-1.6c-2.4-4.9-6.8-12.8-10.8-19c-0.7-1.2-1.2-2-1.2-2.1c0-0.2,0-0.2-0.1-0.1
	c0,0.1-0.1,0.1-0.2,0.1c-0.1,0-0.4-0.2-0.8-0.5c-1.9-1.3-4.9-2.9-7.3-3.9c-1.4-0.6-3.4-1.2-4.5-1.3c-2.2-0.3-4.8-0.2-5,0.3
	c-0.1,0.2,0.1,0.4,2.3,3.6c4.1,6,7,10.5,9.1,13.7c2.2,3.6,2.6,4.2,2.5,4.4l0,0.2l0.3-0.4l0.4,0.3c2.8,2,3.9,2.7,5.7,3.7
	c3,1.7,6.3,2.7,8.8,2.7C380.4,37.5,380.8,37.4,381,37.4z M215.3,36.6c0.4,0,1.2,0,1.9,0.1c1.6,0.1,4.7,0.1,6,0
	c2.2-0.2,4.1-0.6,5.9-1.4c1.6-0.6,2.8-1.4,2.8-1.7c0-0.1-0.2-0.3-0.8-0.6c-4.8-3.1-12-7.1-19.2-10.8c-2.2-1.1-2.7-1.4-2.7-1.5
	c-0.1-0.2-0.1-0.2-0.1,0l0,0.2l-2.9,0c-3.1,0-4.1,0.1-6.6,0.5c-3,0.5-5.1,1.3-7,2.6c-0.8,0.6-1.3,1.1-1.3,1.4c0,0.1,0.6,0.4,6.8,3.2
	c1.7,0.8,4.1,1.9,5.5,2.5c2.7,1.2,10,4.9,10.6,5.3c0.2,0.1,0.3,0.3,0.4,0.4c0,0.1,0,0.1,0.1-0.1l0.1-0.2L215.3,36.6z M236,33.6
	C236,33.6,236,33.6,236,33.6c-0.1,0.1,0,0.2,0,0.2C236.1,33.8,236.1,33.7,236,33.6z M359.8,32c0.2,0,0.4-0.1,0.4-0.2
	c0.2-0.2,0.1-0.2-1.1-2.2c-3-5-7.7-11.9-12-17.7c-0.9-1.3-1.2-1.7-1.3-1.9c0-0.2,0-0.2-0.1-0.1c0,0.1-0.1,0.2-0.2,0.2
	c-0.1,0-0.5-0.2-0.9-0.5c-4.2-2.4-9.5-4.2-12.8-4.3c-2.1-0.1-4.2,0.3-4.2,0.8c0,0.2,0.3,0.5,2.8,3.7c1.2,1.5,2.5,3.2,3.1,3.8
	c2.7,3.3,6.4,8.3,8.7,11.5c0.9,1.2,1,1.5,1,1.7c0,0.2,0,0.2,0,0.1c0-0.1,0.1-0.2,0.2-0.2c0.1,0,0.5,0.2,1.1,0.5
	c5.7,3.4,9.6,4.8,13.6,4.9C358.9,32,359.6,32,359.8,32z M245.9,31.4c2.3-0.2,4.4-0.7,6.1-1.6c0.8-0.4,1.2-0.7,1-0.9
	c-0.1-0.1-2.7-2.1-4-3c-4.2-3-10.7-7.2-15.7-10.2c-1.7-1-1.8-1.1-1.8-1.3c0-0.2,0-0.2,0,0c-0.1,0.3-0.2,0.4-1,0.2
	c-1.5-0.2-3.1-0.3-5.2-0.3c-2.9,0-5.4,0.3-7.4,0.9c-2.2,0.6-4.6,2-4.6,2.7c0,0.2,0.1,0.2,5.2,3c7,3.8,10.8,6.1,15.7,9.1
	c1.1,0.7,1.3,0.8,1.4,1.1l0.1,0.3l0-0.2c0-0.1,0.1-0.2,0.1-0.3c0.1,0,0.6,0,1.2,0.1c2.3,0.3,2.8,0.4,4.1,0.5
	C242.5,31.5,244.7,31.5,245.9,31.4z M342.8,29.6C342.8,29.5,342.8,29.5,342.8,29.6c-0.1,0.1,0,0.2,0,0.2
	C342.8,29.7,342.9,29.6,342.8,29.6z M337.6,28.3c0.8-0.1,1.5-0.3,1.5-0.5c0.1-0.1-0.2-0.6-1.9-2.9c-3.4-4.7-8-10.4-12.6-15.7
	c-0.9-1-1.5-1.8-1.5-1.9c0-0.2,0-0.2-0.1,0c-0.1,0.2-0.2,0.2-1.1-0.2c-3.2-1.5-6.8-2.6-9.9-3.1c-1.3-0.2-3.9-0.2-4.9,0
	c-1.3,0.2-2.3,0.6-2.4,0.9c0,0.1,0.3,0.5,3.9,4.4c5.6,6,7.7,8.3,11.1,12.3c1.7,2,2.1,2.5,2.1,2.7c0,0.3,0,0.3,0.1,0.1
	c0-0.1,0.1-0.2,0.2-0.2c0.1,0,0.5,0.2,0.9,0.4c3.9,2,7.2,3.2,9.9,3.6C334.4,28.4,336.3,28.4,337.6,28.3z M269.4,27.8
	c2.5-0.3,5-1.1,5-1.6c0-0.3-4.7-4.3-9.6-8.1c-3-2.4-7.7-5.8-10-7.4c-0.4-0.3-0.7-0.5-0.7-0.5c0,0-0.1-0.2-0.1-0.3L254,9.5l0,0.3
	c0,0.2-0.1,0.3-0.1,0.3c-0.1,0-0.6,0-1.2-0.2c-5-1-10.5-1-13.7,0c-2.1,0.7-3.6,1.5-3.4,2c0,0.1,2.4,1.7,5.3,3.6
	c7.4,4.9,10.5,7.1,14.6,10.1c1.2,0.9,1.2,0.9,1.2,1.2l0,0.3l0-0.3c0-0.2,0.1-0.3,0.2-0.3c0.1,0,0.6,0.1,1.2,0.2
	c2.1,0.5,4.4,0.9,6.2,1.1C265.6,28,268.2,28,269.4,27.8z M315.9,26.3c0.8-0.2,1.3-0.3,1.6-0.5l0.2-0.2l-0.5-0.6
	c-3.1-3.8-7.7-8.8-13.4-14.6L300,6.5l0-0.8l-0.1,0.3c0,0.2-0.1,0.4-0.1,0.4c-0.1,0.1-0.4,0-1.3-0.4c-4.6-1.8-10-2.6-13.4-2.1
	c-2.1,0.3-3.8,1-3.7,1.5c0,0.1,0.7,0.7,5.8,5.4c4,3.6,6.6,6.1,10,9.4c1.6,1.6,2.9,2.8,3,2.8c0,0,0.8,0.2,1.6,0.6
	c3.5,1.4,6.3,2.2,8.8,2.5C311.6,26.4,315.1,26.4,315.9,26.3z M292.8,26.1c1.9-0.3,3.2-0.7,3.2-1.1c0-0.1-1-1.2-2.3-2.4
	c-4.3-4.3-8.8-8.5-14.6-13.3c-2.1-1.8-2.2-1.9-2.2-2.2c0-0.2,0-0.2,0-0.1c-0.1,0.4-0.2,0.4-1.1,0.2c-3.8-1.2-8.7-1.8-11.9-1.5
	c-1.6,0.1-3.3,0.6-4.4,1.1c-0.6,0.3-1.1,0.7-1.1,0.9c0,0.1,0.6,0.6,3.6,3c6.3,4.9,10.6,8.4,14.7,11.9l1.6,1.4l0,0.4
	c0,0.3,0,0.3,0,0.1c0.1-0.5,0.1-0.5,1.7,0c2.9,0.9,6.1,1.6,8.2,1.8C289.3,26.4,291.8,26.3,292.8,26.1z M323.1,6.7c0-0.1,0,0,0,0.1
	c0,0.1,0,0.2,0,0.1C323.1,6.9,323.1,6.8,323.1,6.7z"/>
</svg>
